<mxfile host="app.diagrams.net" modified="2023-06-25T15:38:13.986Z" agent="Mozilla/5.0 (Windows NT 10.0; Win64; x64) AppleWebKit/537.36 (KHTML, like Gecko) Chrome/114.0.0.0 Safari/537.36" etag="sIIZoGDj7As0Po9_nMce" version="21.5.0" type="device">
  <diagram id="C5RBs43oDa-KdzZeNtuy" name="Page-1">
    <mxGraphModel dx="1434" dy="760" grid="1" gridSize="10" guides="1" tooltips="1" connect="1" arrows="1" fold="1" page="1" pageScale="1" pageWidth="827" pageHeight="1169" math="0" shadow="0">
      <root>
        <mxCell id="WIyWlLk6GJQsqaUBKTNV-0" />
        <mxCell id="WIyWlLk6GJQsqaUBKTNV-1" parent="WIyWlLk6GJQsqaUBKTNV-0" />
        <mxCell id="RCtKOQKh-bSYk3bHOEbh-31" value="" style="rounded=1;whiteSpace=wrap;html=1;" vertex="1" parent="WIyWlLk6GJQsqaUBKTNV-1">
          <mxGeometry x="550" y="120" width="250" height="250" as="geometry" />
        </mxCell>
        <mxCell id="RCtKOQKh-bSYk3bHOEbh-24" value="" style="rounded=1;whiteSpace=wrap;html=1;" vertex="1" parent="WIyWlLk6GJQsqaUBKTNV-1">
          <mxGeometry x="110" y="200" width="280" height="310" as="geometry" />
        </mxCell>
        <mxCell id="RCtKOQKh-bSYk3bHOEbh-15" style="edgeStyle=orthogonalEdgeStyle;rounded=0;orthogonalLoop=1;jettySize=auto;html=1;entryX=0;entryY=0.25;entryDx=0;entryDy=0;strokeWidth=2;" edge="1" parent="WIyWlLk6GJQsqaUBKTNV-1" target="RCtKOQKh-bSYk3bHOEbh-9">
          <mxGeometry relative="1" as="geometry">
            <mxPoint x="370" y="280" as="sourcePoint" />
          </mxGeometry>
        </mxCell>
        <mxCell id="RCtKOQKh-bSYk3bHOEbh-4" value="&lt;font style=&quot;font-size: 17px;&quot;&gt;Arduino Controller&lt;/font&gt;" style="rounded=1;whiteSpace=wrap;html=1;" vertex="1" parent="WIyWlLk6GJQsqaUBKTNV-1">
          <mxGeometry x="130" y="260" width="160" height="80" as="geometry" />
        </mxCell>
        <mxCell id="RCtKOQKh-bSYk3bHOEbh-5" value="Motors" style="ellipse;whiteSpace=wrap;html=1;aspect=fixed;" vertex="1" parent="WIyWlLk6GJQsqaUBKTNV-1">
          <mxGeometry x="210" y="390" width="80" height="80" as="geometry" />
        </mxCell>
        <mxCell id="RCtKOQKh-bSYk3bHOEbh-6" value="" style="endArrow=classic;html=1;rounded=0;exitX=0.75;exitY=1;exitDx=0;exitDy=0;entryX=0.5;entryY=0;entryDx=0;entryDy=0;strokeWidth=2;" edge="1" parent="WIyWlLk6GJQsqaUBKTNV-1" source="RCtKOQKh-bSYk3bHOEbh-4" target="RCtKOQKh-bSYk3bHOEbh-5">
          <mxGeometry width="50" height="50" relative="1" as="geometry">
            <mxPoint x="220" y="410" as="sourcePoint" />
            <mxPoint x="270" y="360" as="targetPoint" />
          </mxGeometry>
        </mxCell>
        <mxCell id="RCtKOQKh-bSYk3bHOEbh-7" value="Sensors" style="rhombus;whiteSpace=wrap;html=1;" vertex="1" parent="WIyWlLk6GJQsqaUBKTNV-1">
          <mxGeometry x="130" y="390" width="80" height="80" as="geometry" />
        </mxCell>
        <mxCell id="RCtKOQKh-bSYk3bHOEbh-8" value="" style="endArrow=classic;html=1;rounded=0;entryX=0.25;entryY=1;entryDx=0;entryDy=0;exitX=0.5;exitY=0;exitDx=0;exitDy=0;strokeWidth=2;" edge="1" parent="WIyWlLk6GJQsqaUBKTNV-1" source="RCtKOQKh-bSYk3bHOEbh-7" target="RCtKOQKh-bSYk3bHOEbh-4">
          <mxGeometry width="50" height="50" relative="1" as="geometry">
            <mxPoint x="220" y="410" as="sourcePoint" />
            <mxPoint x="270" y="360" as="targetPoint" />
          </mxGeometry>
        </mxCell>
        <mxCell id="RCtKOQKh-bSYk3bHOEbh-9" value="&lt;font style=&quot;font-size: 17px;&quot;&gt;MATLAB Main&lt;br&gt;Control Program&lt;/font&gt;" style="rounded=1;whiteSpace=wrap;html=1;" vertex="1" parent="WIyWlLk6GJQsqaUBKTNV-1">
          <mxGeometry x="575" y="260" width="200" height="80" as="geometry" />
        </mxCell>
        <mxCell id="RCtKOQKh-bSYk3bHOEbh-11" value="ESP32 CAM" style="rhombus;whiteSpace=wrap;html=1;" vertex="1" parent="WIyWlLk6GJQsqaUBKTNV-1">
          <mxGeometry x="625" y="400" width="100" height="100" as="geometry" />
        </mxCell>
        <mxCell id="RCtKOQKh-bSYk3bHOEbh-12" value="" style="endArrow=classic;html=1;rounded=0;exitX=0.5;exitY=0;exitDx=0;exitDy=0;entryX=0.5;entryY=1;entryDx=0;entryDy=0;strokeWidth=2;" edge="1" parent="WIyWlLk6GJQsqaUBKTNV-1" source="RCtKOQKh-bSYk3bHOEbh-11" target="RCtKOQKh-bSYk3bHOEbh-9">
          <mxGeometry width="50" height="50" relative="1" as="geometry">
            <mxPoint x="475" y="310" as="sourcePoint" />
            <mxPoint x="525" y="260" as="targetPoint" />
          </mxGeometry>
        </mxCell>
        <mxCell id="RCtKOQKh-bSYk3bHOEbh-13" value="&lt;font style=&quot;font-size: 14px;&quot;&gt;Via Wifi&lt;/font&gt;" style="text;html=1;align=center;verticalAlign=middle;resizable=0;points=[];autosize=1;strokeColor=none;fillColor=none;" vertex="1" parent="WIyWlLk6GJQsqaUBKTNV-1">
          <mxGeometry x="675" y="367" width="70" height="30" as="geometry" />
        </mxCell>
        <mxCell id="RCtKOQKh-bSYk3bHOEbh-14" value="" style="endArrow=classic;html=1;rounded=0;exitX=0;exitY=0.75;exitDx=0;exitDy=0;strokeWidth=2;" edge="1" parent="WIyWlLk6GJQsqaUBKTNV-1" source="RCtKOQKh-bSYk3bHOEbh-9">
          <mxGeometry width="50" height="50" relative="1" as="geometry">
            <mxPoint x="390" y="310" as="sourcePoint" />
            <mxPoint x="370" y="320" as="targetPoint" />
          </mxGeometry>
        </mxCell>
        <mxCell id="RCtKOQKh-bSYk3bHOEbh-16" value="Sensor Readings" style="text;html=1;align=center;verticalAlign=middle;resizable=0;points=[];autosize=1;strokeColor=none;fillColor=none;" vertex="1" parent="WIyWlLk6GJQsqaUBKTNV-1">
          <mxGeometry x="400" y="250" width="120" height="30" as="geometry" />
        </mxCell>
        <mxCell id="RCtKOQKh-bSYk3bHOEbh-17" value="Motor Commands" style="text;html=1;align=center;verticalAlign=middle;resizable=0;points=[];autosize=1;strokeColor=none;fillColor=none;" vertex="1" parent="WIyWlLk6GJQsqaUBKTNV-1">
          <mxGeometry x="400" y="320" width="120" height="30" as="geometry" />
        </mxCell>
        <mxCell id="RCtKOQKh-bSYk3bHOEbh-18" value="&lt;font style=&quot;font-size: 14px;&quot;&gt;Via Blutooth&lt;/font&gt;" style="text;html=1;align=center;verticalAlign=middle;resizable=0;points=[];autosize=1;strokeColor=none;fillColor=none;" vertex="1" parent="WIyWlLk6GJQsqaUBKTNV-1">
          <mxGeometry x="410" y="285" width="100" height="30" as="geometry" />
        </mxCell>
        <mxCell id="RCtKOQKh-bSYk3bHOEbh-20" value="" style="shape=image;verticalLabelPosition=bottom;labelBackgroundColor=default;verticalAlign=top;aspect=fixed;imageAspect=0;image=https://cdn-reichelt.de/bilder/web/xxl_ws/A300/ARDUINO_UNO_DIP_01.png;" vertex="1" parent="WIyWlLk6GJQsqaUBKTNV-1">
          <mxGeometry x="40" y="235" width="110.09" height="80" as="geometry" />
        </mxCell>
        <mxCell id="RCtKOQKh-bSYk3bHOEbh-23" value="" style="shape=image;verticalLabelPosition=bottom;labelBackgroundColor=default;verticalAlign=top;aspect=fixed;imageAspect=0;image=data:image/png,iVBORw0KGgoAAAANSUhEUgAAA4QAAAKUCAMAAABrMQYmAAAACXBIWXMAAAsTAAALEwEAmpwYAAADAFBMVEVHcEz+//8EBAT////+//8ODQ0aGhv2+PgDAwP+/v3////////+/v4ODQ0PDAw9Pj4PDQ0qKSkNDQ0TEBASEhJhYmMMDAy+EQEODQ11dncpLi80NTVMTU0GBgZBQ0P6+/sWFRUbGxtGnK/CDgFAUFJeYGBkk6DDFALBDADENCUqKis1ODn6iQXDEQFCX2RSRkN5enrMEgLbSwPKFgJOoLRYqL7IGgG8FAGLjY1iqMWJiIjAFwVbqLjSZlpyr7zEGQm6ycz9wBpkZGSepKXRNCCenp7zdhP7+/uTk5O9vb0oX2hDnbT6bw75cg/7tgjWFwr9bwQrWV46ZGn8/PxVkp37ZAP8fRAqZm79vQ74uhxKk6TjJAf7dBdCorH6wg0nTU6ixMv6izpCjJ/2zIT9jA1HSUn5oU/3zTr19fXnGgJ3EAl3FxL2VgWiFQL7nAf///8CAQEtBgf/gApWqL/XFgHTGQGKDwH/gwwqCw0rERVpCgL/aAb8aQbNGAL5VAT/wg1Pnq7OFQH1TgP/bQlZq8P8WQX/cQnZGQL/egn/YwX8gAj+dgdFCAdRh4xUprx4DAKADgFOmKf+Xgf9jAhtCgHvRwL+mQr+kgicFwH/hwjt9g+PEAIqGxz6NAE7CAjgHAEvCQvkPAJ1DQJbCgSFDgJRpLreOAKuHAG4IgHpQQL9oQkqIyOoGgFRjZdTorT7ZAYzCAjuJwHDJwKTEwFkCgP7cgj+TwQrKiu9JAKXFAL9vAn0LAErMzSzHwHRFgJOk6BSlKOiGAH9qQtPCQZWCgRSkZzkIALeGAH8PgIqPD39RwJxCwIrTE59DQIqWmFOj5v9sQsrRUVSmqpSoLHz8RFRg4cqU1gvc4THKQFRfH3ZNQPnJAHGGALPLwArcIAtfJEsZXD7tQsqanhOi5RQeHc2lLQpYGhNf4Mqd4nRMQHWNAL9zQ0tg5s/mLoyjazJEAH52AvKKgJPcG7OKgL55A1RipEyeYwyiKM7nMTSNQI0bXnLLwE1gZb6xAc9Xl9Dgo295bu+AAAAcHRSTlMAGOpHEktDA/oKICcycjO+hrfJXre49/2ZtCnPuNycPOfdXFhDmj+EQ6fddFFtYBmY7TTdgeIl6qb9gM/FmqvAlP6Bj7m1/mhoaYTj0pN2+uXaxFSsc/Xs6b3N0Lz90eytp+SV3OWcppvq2rnr5O20zb8oLwAAIABJREFUeNrs3N9LW2kaB/ARCpI6DIWlHLAwAx2nP6aYjrulLuu6ZehetReDbkEYKLP0blu8SDnJJG1PSyox/oJk1Ko10aRqTTRh649oTDUBtRh/BgWJy+S0RuGIHXNyLJV6cO2w73u0u3Nbje7N9wP5Bw58eZ7nfd43n3wCAAAAAAAAAAAAAAAAAAAAAAAAAAAAAAAAAAAAAAAAAAAAAAAAAAAAAAAAAAAAAAAAAAAAAAAAAAAAAAAAAAAAAAAAAADwsdLT01UqVXo6vgTA/yWBR9IyMz8jMjPTVPgcAIceQVVmlvrcuc+PHTt27tzvPjuvQjkEONwMnj+lvnC84MSJr78+cfPWrdNfnrmIGAIcoiOn1N8UFhRNT/j9Pp/vzk2Sw2wSQ3wYgMOhOn/y8vc3FqLTQ56qUZ+vxaLTFd+8lZ99Jg3fBuBQWtFTJ69dTb6KzPkNo600grZAry3QUHwr/0ukEOAw6uCpC9euytuRab9ntLXVN2XV2WwNw15vgy33LFIIcAjj4BcXvr8qb8Z/HfLYSSGcmpnRKSlscEkNxUghwMFn8BTNoLwYGbJXNVe13pmytLUFAl4mGJSCIS9qIcBhZFAUxWR8zmPoah71TVmsOl3vsJfUQZfL1cOgFgIcfAZviKLwbtpv0JNCWGuZ0dl0Xq8ryPDMAMMEjSSFR/GdAA4yg7IoC4n4kKHLWbVTCHt7h4ddjCsoMTzHuFykI72ItT3AwVCRDAqCKCdfTXuczV0v6ERo1dmGG7ykF2UY3sWwLtabi00FwAFJzyDz4NProrgdmbA7m5tJCFusbTpbQ5Bxk3Y06OJ5hvWGgsX5Z47gawEcgKMn/5wUxaS4uTznNzjJRNhaO0O60UCAYVw842YYjmMGehhGyjv9e9xgAziIgfDaVZE0o/JqxG/Xa6petPpqZ9p0gYagyx3iB97y4WCQZSSO4XP/mo2xECD1zSgZCJPCPwVBiE/b9c6uqlGSQau1LeD1ujnOzHEcz/MS+ZEcFp/FNVKAlEs7eW1bFEVZ3IxOkBCSbtQ3RbpRXYM32KM1O8xmsxJDwuj25p3GWAiQ6mb05LUbyaeCIG8uT/j1Xc1Vo613aDfa2+DiX8diT2KxmNlspBnk3AyfcwljIUCKm9FPL9+QRTEpywtRv11DQvjCRyohGQmH3Vx7R8f4+OBg95g5xNGWVJI4MhZmYCwESKHz6sKkrOwIV6YNBhpC0o1alEI4YO6Y7O+fHG8a7A5rQxxnlEIhF5OD+2sAKW1G//b5qixeF0Vhe87v1Gu6aDfaonSjwX+1P6omSAwHHWFSCzlOknoGmOKzZ9CQAqSsGc26XCQKtBImtiY8Gr2GdqO1pBu1BYYHXneYSkr7SsvvTzZ1xxxaI2d8KYXdzHd52Rn4cgApkqEuXBQE2o0uRjx2vd5JC+FULQ2hlxTC8tLKvrKS8v7x3bHQyPAsSy+R4oQUIDXS1McXBFkkFlfm7AaNsiScskzRR0zuXzqqSx/X11RU0hQ2dY+xIWOIM9IDmj/kn8HZDEAqelFV1uWCbSFJMigsRIYMerokJCFsaWmz9Q4PtD96dru+s7P+x8qS6n7SkIbNnDZkVFaGl7JxNgOQihBmXClcTsridVnYXJnz6zW7Z6NTLW29pBvtMPXVj8wujdTVlN0zTQ52O8IhMhfSxT2Tm/8FSiHA/h3J+mPRIulGBVl4Fx3y6J0khHQktFjovdG3HdUVnUvPHzyfra/oKyelcGxMq9WSfpTjOQalECAVhTDzSsGrTdqLyptbc347mQhpN1rbYpmhm/rXpBsdeb+2tvZ85HHlXTIVxsZYMhYaSQy1Um4+1hQA+y+E6r8UJehA+FRcjAx5yEioXJehIbQFvAM/PyypWVpf31hfm62rKKmebOruNpvJTEhCKPFv8rIv4gsC7I+KFMLlhEAKoUDfEdr1pBnd7UbbbA3eN09MZZ1r8xvzjRvvR2rK7prGu8lUqKUnpJz0JpiDUgiw32b0vLqwaDvxlGRQ3l4ZshvoRKhsCS0zJISulx3lt0c2GucbG+fXv+2sKa2eHBx0hGk/GgqxQe67vOyjOJsB2I809d8LVkghJKUwuTVNm1G6oHjhU0LYOxz85dGzmqV5JYTza7OPS++ZxukBqVlrpEt7lv/HWbxpAthXIcz6U0FkeVN5R5iITHj0TufOC4pa+hdPAa+7vb+v7v1uCNef11eSqXAnhKQd5cPSGybvNB7ZA+zDUXVhNP4uqewnVuk/y3QpZ6OtvlqLtU0XcPWQkXBkbTeEG2udFZXlk02DY0pDymlZhtHmXsJrCoC9U2V99cPy1qJyZW0zPuQxdGm6PoyE1jZbINjTUV1BRkIlhGQqnK0vu9s/PhhzONhQiGM5hmc5rCkA9tGMZlwpjETfJUSZjITvon67s4tuCUeVBUUbvTj68lF5zdKHEDZuPOi8fdc02dRNSqFWG2L5HlZiB/Lwr08Ae3VEffyH+PIm7UbF5Bb9ZxmNhh7LtCrPmHT0GdPDu/Xfzn8I4fzaSE2piV4gHQuz2pBW4sK81pWTj9cUAHsshJ9+UxCJLChX1sRE1GPQd9EQjrYqCwqdLuDtab9fUkdHwt0Qri/VV5bfHx/sjjnCZpZjjWZGiuFsBmCv0tSFkZX46k8C6UaFxWkDCaGTvmIiIaxtISEcDv77iam0c61RQUO48b6O9KPjTXRhb2bDb0PuMOfmc/CP3AB7LYRFkV+3dpaEiZUhg1N5QDFKu9GWGSu9vf36ybOKzvXG/yL96OOSZ/Rxb4yEUEv3FJyRbuxRCgH2NBEWRiLxhYRIQiisRv10R/ghhDtbQrqqv9258ZsQrs/WkBBO0n6UhJBeIeUkTsrFxh5gL4Uw60pBJLqySu9uy8n4hJ1mcOds9E6tZcZqC3jdPz8q+ZFuKHYPZhqVff29fnqL2+EIk1JIK6Fkzr2EUgjw8Y6SQhiPLpNC+JMsJqJ+g0GjPOfdWVBY6cVRd/vDezWzv62EGw/qyu6Z+psGu8ccDpZVQmjktfi7GYCPp8r6qogUwu0kfT+RXNgphLubehpCuiUceHK/r/75/E4lVGysjdzuq6b3R0kIzazSjxp5Vso7jb8CBvjYU5krhSuRaFx5SSj871iGXlnzTVnouQwJYYepr+7Bbie6u6SYfdxXTvf1sTHlGjcJYYiEEKUQ4GOlqUkGIyuv/sPe+fy0caZxfKvdS9JcIyu55JJtlUNRaQ6NFFU9pCcuEexKPkX7F+zByA428dgdEBjsSLAQ7NDQQLwsAYJkLwmBEGwJtsJyOhmBZHlQ4o4nI9lyAoMdxRpcx7T7Pu87/hHyi96fr2y4W/ro+/x+oTZa2pMFuGpht9ykRggpIRw7XFqC0xbuejBKvoXlYZ+z5xFY4TqMcfNcNMpF89grRKH+cFXmXKuSFcR0RtMulXaycVgkZBDe66St+hvX5+a3Rvq9RpuwaoZFd6DdOXTfgNBKIeRfxpbQClGoP8bgSWKE2d+E8h70J0rlzTt2uz3MMkIG4eSN1dvzL0aco2uFN5ywuO/3dodIPAoLTbRXSOJR67SNWCHe40ahDq+/NJ34h6IIggSbhNqeAouE9uoWE63LTN4lED7pWhimENamR38obvs7eqv10ZjHAxDmPVtWjlghLlOgUIdm8HRLa7ksCskKiUa13Zyw6LCE6XEZCiGry8xNv54iEG40DMywmRmSFEI8CgtNMas1auNsnClqTaEVolCH1pGTLW26KopCdpe+zKvGx0gsapRl/t0J4zKTAOEvt1y+gAFhtU9BdwoX4CA+iUfHPRRCPpVaz6eaz/wZrRCFOlxC+GnTCbOaFZOCmqHvT8Dp+3DYYqkaIV3ovT43/eutHl/gWbHWJqR/i89m+xZCLkgKaWkGbj7ZUp68KX/+i6P446JQh0sIz5lVRflNSOZgmXdX3RyDhJBAePV/P4ERssdBI/NPZoZ8/uXGgRmAcHm2faHapBiHpJD3cPk899LUjO/DoFCHC0Y/u9BWllUxuZndgx2mHWKEFrtlwhK+CiNrnT8H6eOgq5H5qZGhPgPCRL1J4Z7t8HYPQTxKnDAGEOaj67Y8lzJ9i10KFOowwSgcGlUphEqmtAuLhCsOkhCCEb4B4TQ8TOj1uw84IUAISSGJR5+ScJRe4/bkOVv0oukslmZQqMMEo6cvtKp6OSsKyTRJCC/tKPExh4VYIYtGoTYaZKcttm6NONv9+8V6f4KVRzeGvd3wbC9b7bVZPXAJmOM5vhkf0EahDlOVaSFGKCkEQnGP9ifERYBwojo3CsVROi+z9HpmpLt9tsEJayfXRnuv9Nw39utZaYZCaMLSDAr1cX3SdNxcViU1KwiqppUyO8rmmMNuCYdpNMo69TUIu5wdLBxtqI4mCsv+Yd+VIQohHCCFLgVAmOfg+iGWZlCojxjhqS/NsqSWVTEupEualskJ7P2JCXidlzYogo+hS7h6e/75TFf3aM0JE9V/BTeD8NGPxj6T1QYQchxvy5/H9wpRqI8aYZsi5cqqmownYYlpFybW7CQhnGCnDjtJNBocvHzjwVxk/sWIq3d4bb9YN0H6Kbhnh/u6h1zQpHhKrdBGN5p4Hl6x/wqtEIX6YFXmbyfMsp4rK1lhU4Wz2+kkMUICoR3mRgFCkhHS29urka2pkR7f8Np2sV6UoSq41/ze7n5ICh8+hVMzHuPMBZ9KRbBLgUJ9UEdOXWhVJUkuK8nN5E6JjW47HNQIw1fZhafgwONJWCYECF0LDMKGsTUY4d7wd/QSCGmTYtxDRM9ccHyKy5/FtUIU6kMJ4actraqsq7KkCCvZTEkr7SUXx+wOSzgcJhAyI4Q1JqjLTL8GJwxUIfyhEcLZDl+IQghH18AKoxTCPBfDtUIU6iMJoTkn/a7KipiMV0r/ghtr8DSvhT1Tb6SEAyQlvHv99tLzW65QnwFhoqFAmihszAZ8vS4Wj46Px2JWGJuJRm35SMx2/nN8PxuFem9CePpcqyzrkqQqSUHYJRDuiZARhllZhkJ47RoMjl5mEHaF3nJC+iAFhTBEO4UkHh1nEPK8zZOKTuMbTSjU+4PRky1tZUnXZVlVNuOyVsqUKvA0L7zExJzwHkkJfw4OToITRuZfzDRA2FAdTRSWZwPe3hAdH4UmBaz2RmGXwhNNpZrxuUIU6n062nTcLOd0XZKVbDy+V9IyGTk+Bgd/GYQ/wdFfulRPIFydnn8ycz/U569VRxmGFEL3WsDbRyB8xF6GGbdCaYYEpClPKsad/fwrtEIU6t3B6IVWNZfWK5ASxoVSKaPtKIsOQiCNRm9Wt5gohA9gfHumJ+QFJ2xsUBgQ+r19Tgbhf9cphDaYmjF58rHU12fQClGo9wWjkl5JV3KqLAqCChDK8BqaZcJuzI3CrcNgcGBy8sbdB3PTr6ZGCIT+tf1i4sAuU8G9ARD2ux4Zk2u0SRHluXkrx6VMaIUo1Dv1SdPfzWpFlyuqVKabhFpmV4zDxd+b9O42NCigSwi3ty/fhclRAqHzoBOycHT72exou/NKD32T4ikcXaPhKGeLpraieXwzFIV6dzDa0qrqUiWd01UluVnOaN9ndpIrExN0m5c1KDrvdQYHgsFB4oQEwl9udYETbgCEifoiE3XCOoQPGYRsdM160cTlL+IdYBTq3Qy2mfU0QVDPydm4sKNlSrvZlUVAsPoMDB3eHqBdQjq+TSAEJ3RXnTBRfa63uP1sbbiDQkjjUQ88DQOPFebhEHAqhV0KFOotHTnW0ibKOkkIdV1WRRKNalopnVy5QyEMG28xwYtoRjS6GiEQjgx1d5CcsJBoLI8aEAZGF+CdQlqZGQcIISvkAMI8dilQqLd1tKnNLEsGhFlBkLT/ZDLK5p0xgNBOU0LY5712bYA64YPrcxFYZCIQBjbchcSBZn0dQtophKEZD/TrbRRCLpX65zfHMB5FoQ4WZSQ5XUlDPFoWNxUwQpIROhwWOLI2cbM2LsMgJClhZOvFTFfPQoffgLAxJyxuLzMIq0khhdBjsxIGozzP5Zu/w9IMCvVGQtj0JXQICYDptC6VRaGS0TK7anwRNurpC9nGYQsY3n7MnHD6JQzM9NYgfNMJl9f8w329RmWGDs3QpJDno3DmgsN3KVCoAwnhhdaylAMj1NM5OZsUMxlNg7FRuGoxYafBKHsHhkEIdZnpV1MzrlDvqH/NXWhcrWcQ7m8AhE622GtMrlmhVUgg5Hje03wGz1ygUI3BaFtWSpN8kESjUJZJlkuXNE3aZPsTdJuXGWFncODxIG1QrEaWXk2NuEJOLzhhsbFTDxAWCIQBr8/Z77pPITSs0BNlVy7ypui3eOYChaoHo6f/2lpO5yo6gVDXc6oo/l76XstkV+7YHdX+BHsQrTNIF3ovP2AQzrj6IRxdZhA25oQUwnZf9xA7ufZ0HY5c0AukFEKeS339zTH85VEoIxg91dIqQTYIysm6KpRJNLqrw32nMGOQjsuwyxaDk4Nw93cusvScOOEVHwlHl41wNJFodMLZgHfByU5cVJNCmydq42ltJmoyfYetQhSKCc6MZllCCBBKZUXQISNU4zA2arEbZRk2swYQwuQogXD+16mRnisLjRA2hKNuAmGHr7sG4XqMhaMGhEs8h/EoClVLCI+bVWaEMDAjqWJ2TytldHFxbMIC27zhWm30WhCOHU5CXWaO9up7+imE28VE4oATbj+b9Xf4evvp3UN6cw0uH9YhjEE8iqUZFAqC0dMkGNX1qhESCJO5S1ppTxXuOBiEtElYhXCgDuELAiELRw0IGwszAOFoXy9dKfzxobFeb2X7TARCKz9t+g7f7UWh/sT2l8xqJU2dsJKWcqoiwP5EWozTs9vsuEytUw9rTHSF4vbSyyczXUMsHN0uvOWE+wRC6FHQbaZ6p9DKrJCLmZb481/grRnU/9k7u56m8jyOj4kP2WEyZrOZkIhxbpxMRrImxou5mGz2xituiHMzV5O+BtkW1HIghUARNoGAggg7ouMKookOrFIYbSJrcJiWE5qYc4h7OB5OwtkqtMVMU44VdH8P/9OWdfcN0P+PljfQfPL9/n+PMj766NDxw9iuhkV6KhMmLVXF07xmHAv1BCEJ4RPMjdIsYX19PTatjb1+fq2FlXBFQLhTCWf7++q6gneb+FHoda75cRV3NGooSuaE9KMyZOCD8IvTJpYmKHJJXbfipuumklSfIAhZCBnCblwvg/0yWKv3IBz3IHz2IYQiPfrzv8S6pzDvw48atSGj9s/Sj8qQXhRnCE17K7mVYz+aNE07sQ5u1NamsEhYaFljCPkk2hC1b2OZkO3o+Mz/g7Czq5FXXFD7KENIlcLoUyUTkReaZMigOd7vcggh6WBO11/YWn7VXd3SErhbBqd5i24UV2/38JPw8uijyPK1S01tjV0NA+Mr2xvZHS3cz7JrazNYKKxrDYrMzE9zeDnb760+NPxKdFQeK5QhGTyKM4R6ckvYUTCjpqW9X3U39QQdYsIta4W+0Yu4cLSnhyB8LCDsbQUIZ1e2OT1a6JrJIoSzAGFHa2MBwqtPaRW3gBCk8HVGnqWQIRn8Vv23ju1qmB3NJQHCvKN+D0LoPJw6d5YgpGle3rwdw9ugPeBGEcKxCYKwsatzYHbxvyBkJQQIGzraW3sfcKUQB3tx31MAKQwofiUTVeQohYzyjt8Bg05eN7dQCIFAdKO6pSZddzUfn7oND0JslxEvwsIEBeZlsH27ACHYUYAQ/Sgut+AFF1lhRxvq2nGulyD8SbSP8jyT4jeUTEiOUsgobwY/wQKhbb9YT9I4PQmhqWpp111X54eHz1Lb6BnessZ9o7jhCfMy2LQ2hg0zrISlELISCgj7BwHC3jbOzNChwjANFQZCihE2MuFKRfpRGWUcByqqv/1O1XPAIPhRcKQ6MmhqlptK6fEpPIaGAxRiyxqfoKAn4dDk0PTjO2ORJYTwLkPYXKqEEAUIG9rxIAVDOMf5URwqpDNpGVpAKreuySjb2HP8s9OWrieToIM584VOkbfVTXCjKp7mpfvYXrcMLv3lnjUwo5OghGMTS68QwtauQYBwBiH04ooH4Wx/H0DY2Eblen4UXiUIA/AkNAKhyrDytcyPyihfBo/WnIYHIZXpczoW6XUUQsvBtlHt4e1z50ZokvCHUgiFEk5O3xmNRJZe3aLs6AcQkhQyhIODACGmR38RPdxPA2xIFX8gU2uEasfkKIWMcg1aMmrqCGGSShO6mdTzZl5bBwbzCTyPjYlRnp+g7fdYqffyMtP4JHz76loLQgh2dHaleWNjhxJubAgl7Lp/90IT+VE+DBMOi0ehEqKtaye/lBfsZZRnUgYY9NlmLpnDSXpOyYAOmraaTrnr1jy8CFEI7414udHz1LPWvcB2FDtHJ5Zf3WpBO4oQzgCEpVJYgHCw436QICxUCnkHMO0fhUdhRtbrZZRpUuYQMJjPYZkeh5eSbEVtM2/ZKXc1qXlpmXtiuQwttojxepn6yelpnKGILD8HCNsAwr5+UsLsDiVcK4GQ1nDTXZirc3g4myEM4da1jCH9qIyyjEPHD5/mThlUQTKjZl63ddvZclObdmL4LDC4MzdK93m7qV1m+jJ2ji69fc5vQraj/Ci8ItKjAOE2QDgOEOJwfXGQYi4c9tKj8DAEUzom86MyylEHPz5+5LRtJ01slUnmqDIBOpi3bQeF8AUuOqQj9d4AxY9ezxooIZfqR8ciE6SEF1gJF5u9zAxjuMFKCBDWdTUGexFCQWGY/ChCGCIpNKQflVGG78FDwKBq6zk0olu6Z0VtO+9gt8ymlbh9FiEcGaGRerHg6fxF4UaHJmmOKbK0fPNWS1uwtaNzoH+clLD4KMySHV2Z7R/o67zfGmzjRyEv4n5KfhTX4YcCuIvb+Eb6URllFnuP1oAX1XUSQt0kAm1wowCh6qTddFJ7SF2j6EfF8nsWQrzGdOPG0NC0gPDlzUstbayEWK1HKSxguMEQjg/01XW1Bqlc70FI10IFhCElZEyc/FJKoYyysqJ7jtYc9Fmmqee4V5Seg5iTAQg16+/uup3A1m1aLcO5UW5Z47zMjR6cJWQI31y79KCNsqMA4UxRCrMlb0KGkDMzP4vto6JQiBDiPIVx4pQ80CSjnKxoxb4jB32OmTPxCiE/BpE/27IsU7U2V10dXoQjFDzERFvWaMOT6JeBJyG2by+9fYNKGBRKKCDMXimUCbebF2f7+/vqcM1MmyjX06IZ2jSDA034KgwZhiIPhsooJwY/qT5S5QPo9AKENrpRhBBehPr3NFF/jhq3i5OEtGYtFusmCCkvQ7V6UMIChLMMYbbwJBQQDvxvCAP+MB5Iw61rASMq/aiMMnoOfl592Odz4AmY48qEyQRC5MGM2pt/Sa2r87dJBs+cKY7zcvM2vAlxx5OAcGm5VAmpRkFSyH8AYfMMKWFDR3swiCOFv5TMFAYCdDobIcxkoie+kqMUMsqFwf3VYEUty9b5NcgI5tGKQrxTt1bdtBl/eI7NKO385VWH/+AiIQ70cnIUIXy5QwlXZghCIhCFEN+EKwDhACphEUJaNIOFQnEkLRo1/KHMN3+skH5URjnEnv01h32aY2NOxjQ9Bi3BoB3Pp113C3es4RkmFkJe8MTbZSgvU18/iXt/qUKBQxScHR0Yn12cWWMKs8+YQg/Czrp23HAhIBSLDwlClMJQ1AgbtSdlqVBGuTBY5XMckzUwh0lRO2/liUAH9DH+PuWu6vGpYSAQy4TegidqWcMxpgWxAP8yQfi6FML+2UX2o4RhUQnHEcL7rY3cPUqLD4UUIoRAYQCehJWBylNy65qM3R8HDu07UuVTQQdtU3CIVhT4YwQt1dpMrW5a87fpPPaIt27U6xuN8f57nGMiNxp5/fK5gLCuD2sUBOHGhxA2AIRBbFz79W+eH0UGqWsmpIQCCvyvPCm3AMvY9YFdMlWYk8nz8K7u5USZQEAx8T7tpmn1PW++99IyT0TfKJ9jorzMHQ/CFgEhvAk/hLDZg5Cq9U2/eo1rc7wN34MwEPIbSu1XcguwjF0ug3s/rT7o86mWbeolbWqEoGqpmqOqjprG1u047Vi75x2g4Eo934HhJ+EQrra4MxqZWPKU8H7noLCjawThBiK4seYp4WBnV3vwbi8rIb8J6VAh2dFQKBAy/P5HhvSjMna7DO6v+b0vLhhMejrIj0GHCHTiNghhzsFpXvKiI3wYlIQwdj0Wu3idNo4ODU1OP36MEL59c5OVkCCkGsU2SeFGlikshfBCb1OxZ4ZmCjkzAxCGjYy/MiqvpMnY5QhWf1bl0xzLew0WGCQC3wGDmpNIp1LrNraN4vzEmbPUNoq50fM8SrjQXXCjoISPIhPLb27eKoUQu0fJkHJsCzvajxA2MoTFRTM4VAggoh2NVuIi4BN/kvlRGbs29nxe/UXVvC9uWXls2hZjS8KKogi+c5x3jqa5qbSOhXocn+DjvH8VQkhZmdjCwgItwEcIRwHC30AJwY72AoQN9Cicad4ugdCzowzhXVx7KCqFc+RHw+JSYShq+KOV/swpOUohY5fG3oo/HDl2LBFX87Z4D4rqoGMhgiI0J667q+tO/OHwPXgSFhc8/fNHUEKsEcZiCz3Cjl6+M4oQvn0FdhSnKNrrGrhQuF0ihWtrzcKO9hGEF9qaWkTPDEPo59MwihJWAqHKaCX4UflrydiNTrRiX83BY4nEO9VyClaUUjL0EkQMNQ0+8N1006Y2zzdgRs549YknvOEJD8FwlZDuMY0+GpvAWj3Y0d4gQDhIEK6AEpZCOONB2NHVit2jLQUl5LvZNNGkKH4lqhi/GZWn5CpuGbsuDuyt2Fd9sGo+oQFuejEtmkcv6smgRhHXkq67ZSWmhvExSD1rP4hJwvPgR693X49dZDdKEOKT8PXyc4LwgoBwnCFc8xjcAWEjPAofcLmeIcRroQJCNKUZw1CkH5Wx6wj8+NMqU9n9AAAgAElEQVR91Yerjs2DDDroQXdUBykjKghECBOr/2Hv/H6bvM44LtSOaqWaNO0iEq2Yxti6gihiTOsFW3exXnUXExVXlaZK7C8gS2pn9ktkojhOPClRUhIigjDpmoQYiSwjOE2NJbIKamIi+8ZGYBLb0hsZsJ1FSLYJybbzfZ7znvdNYPcYncd2+APQR9/veX7WzeJiNNyG2xMhPkko76FdvXqVjmT3cV7m3FkkRyemnz24N3aJ7GiweXhYKOF8XvpR+d2mhP2dFoT3L9CJtC46DWNg31MMGVLtR3W8Qvx9f8euXYLAPe+8/VkqkVjJrQNBu1fUqksoBhfTiSWzvrwSD7fxNC/vd7LSMl8s9PIhGIxQcNPadSoTjp05JZTQ7w+gg3sQECJB+piFcLO9PZ9EYgb71jg9eu07+2IvbZqhKgUtP/QZ8KM6P6rj1XgGkgQKAoURZScqIFRdMmxFVxYdCMKMpmtmvbpIEFqpUbtbBpX6BXoSOiFcA4SnLQiFHRUQthOEpIaP29vnJIQuCaHcM0PD9ege5d2HGGfCaOGqT68+1PGKiODunT86sOeHx/b/JAoEF1dyqlEt46xMLDJ94pNIpxKFcrmSQ7MM36h3y/qE7BuVExR9n0sIx69fn5h+8nCMIewIBlwDQ4OD88k5SSGEUCjhnFJCv4Cw+5QcpLgPP3rBehPGACGU0Gg58nt9qlBH4zN4aPf3Dny8551j+6NRYUQZwSXKiVJatLDNiSasKNXLpTRqhCGu00sGaZwXlXqseOrjgV6CcGKCy4RUrPcHqIN7PpnPA8LNfz+mAoXDjvpnOq50dzqmmah9lB6FMSGFWHLhM3yH33tN50d1NHgq5tAPdsKGSgSFDKJNTfXICB0kFbQYtAAUQrho1iuZVGTE7Q651UlC240u9PaO3pEQ8pKniVkFoUdAyEo4n7cNKZ6ECsLmIOYouHENe7jlNBPvH8VNCvpr6NPZOho8Xt+9k0VwfxwEiscgEjIZXHwp2l5UWdFEQlGYSlTr9WouGm5zu+XO321utHdhVBYJrU1rs3cdEAabh8mOshIKAB/Tk3DOAeGM1+oePS/PFN5qUUuAkZ0RUrh6RJ/O1tHI6Zgd+w7seRsExgVWaMimDpmlDA7wZpZsLyqdqIVfKiV+K2bdLKTDI23olZH1CZhR2muBcd5eniWk7u2zN14E4cAg+VFSwk0WQgeEgSAg7DwtL1Lct/woVq4pCHEa5sfaj+poVCe6Yx+mBQVR4CsnfGhuHc3afIm+mNnSLKoYTMlIZOr1WiERHnHz8YmpUMghhDRISJstJISXLws7OmFB2L8Nws1NcqPiSWhD2BP0z3g8Mj0qIETnmiwUtrAStho+tK5pP6qjYWXwrfd/9smxz9JIhq6sFHIF2iKDk2fWWsN1hwySDyUFTOHfRLxgYqtFPNTmppF6qz7xJU0SXqXO0d4+q3H066/HqWtt7dnY2CVSQo8/0OOyMjNIkIrYpAqFw456PbQAWEJ4n4sUPNBEj0IhhtlY7Mi7v9b/mzoaMXa89vEnxxLgL5crrK/jJQgTigO8VUC4TQbJhpIMxuPil0otmfVSLhUJ4SooOtamVNsoL95eoNwoD/QKCGmsXkB4jyDsB4TNBOEkQyic6CbSMkIIFYRBr6dbpke5ffSmdbyeOtcMWr2WbfrgPd0/qqMRZRAXltbX/1tgAypegMQfBe25p6yoysgkbCcax0e8ITfQuh0d4frEyZAcJHTstaCeNbKjdBRtHBA+eTZ2USlhM1Y9Yc0MKASEUMO8rYQBv78DEN4+ffu8bB+9ietMKBS2xEgJsQl4WvtRHY0Yr7/1/vHqcmlpqVhcVrHB/7AX3doj40Qwjl9KuNHSSipMF+rFzx1SaRl5D01BeM6CcHYWtXoB4SkJ4TDSo8KPJkkKN0EhuVGCcMCFxMwValxzDFJIP0oPQvyyPmNWnyrU0YBW9Oe/+rRaLJU2aqUN8bFjmXIymFvKObKiFoJxCWA8mloslc2iEMK2EJ8Fdcsr9XL5PVYdjt7pu6NK9Wex7nB6+skDSwm9UEIJoWCQH4Xtc1ZeRkBI2dErHhtCmim8Rf2jrTI14zP+uGo06VOFOhot3nhz74efVsxKqVYTX4oSPqWNDYIws1RQY0vyNUgaSBBGxSceTWdMEy/Ctja+hcYbf+lKPV+gQIGCJyjO4U42jVAICB88dELospQQrWuMIedlJhnCmZkOC0K6SMHT9egfbW2BHwWEXVmjS/jRQ/q/VUcjPQd37T3+B9OsmDUBoohahTAkHawWq876vI0g+1AgCAbjuVq9tpSIwo1SjTB0Us4wffultfR3wWqXwWoLWvyL9dtPFYQdQUA4xHaUtHAOSiiITEoIm4N+r8fL3aPsR+2mmdYWWaRYzRq3xnV+VEdj6eCuvb8RDJZrZRMQmhJEhpAYXJJOVCVkEgQgGIwShtHUOl6E8fAItavRSL2an0Ba5jkIb9wYH6elo0/5TdhPEDazEvKjkCIPNwoIJwFhwN/h8ar0KK1cu8lFCnRxE4S+6ZbY6uxhnR/V0UghvKhgkIM5ZCWEF61mMoX1LTKYljKYipIIRqMRgWIkJ16EVXoRUl4Uu+9PqpuEdAZmlA7VCwixe5ua1mBH1x4+ukhK2N/t7ZhhJaRHIQzpHOlhHiWKwcEhTsx0eD39nXLjGnpmAOEFOVPoo1Jh9larryn7u59qCHU0Tk5GMFguV8oSwwoF3oPQwSIX6HOOwoSVkCEFpIhH4plaWbjRiIRQjfPKtAy7UQeEpISoUOAk08VLpxnCYMA1PCAhzCctKUwiOzoICl3NgWCHh1bhy+Wj/Cjkrhk0rRGELYYv23r0oPajOhqIwRMCwb9ABfGVSlhapgfhkuoVtXKiCUZQEQgpDKdrpkkT9W6134kZVC1rozxKCAg//6dVoZi+K+0ozRPOBKlaP0R+NI9nYR46mJcQDnAHt6e7X6VHuUjB+dEuugsjHGnWl/WtGod/+0sthToaI16HF62XzbJTCZGVQY3eKtDbtcHUcwgKHRRCKF6U62ncYWIIp6bUSD1tWUO3DOdG/36O7ajcbbFGiZnTWG/h9c5YEFJ+lLyohHBSKSENM9mPQjlJ4YDQaDWyMWN29SN9lEJHo+jg8ROCPxLB8lYEOSmKtaIrzzlRR0Si0ZFFIYTFxZS8zMtH6p1CSGZ0gSGUVcIbtHP07pOnj3iIot/j9Qa3QchCmEw6IfR7PVf6tzeu8aYZOgxj+LqMbIsvaxzVRyl0NAqD4j1YZyNKOlhjBIvFqjW8az0GU9sRjEQjHOGqaW7kEtERHmDijjVVJGQIe2W7DOVGAeF1tG9Prz29J5XQ4+3wKwiJwiSpYFKWCR0QdjuVUN7NbqHeNUjhrZjR5WvKHv6zzo/qaBQGK1+Jr1mrmzIjs8FGVCVF08Sg9RYkAwoC7QgnKvXSejrOHWvYLcPzE3/7l6wRYrFF7yjN81KpniHEbgsaZMKTkCCcCfQMD1BmhkqFDGF+G4TIzGCul68U/sPeuUYQxgSEraux2GpTkz6SpqMh3oNg8E+VskzJWE4UtcGCfAymVX0+7pTBSMQWwpH/YHwiEQ/zUgtcYrKV8P9CyMnRJ4/uAULsHfUAwp6BgcFBmZmBFCZtJRwAhDP+DlqFf+0atXCTH73JPTNd0o/GjKzR0pXNHj2o+0d1NIIOml9ZVpQRFDKIFRbrOacKcjomZT8Fib1omP5GphYr5doSFv66SQVDthB+SzNM0o7e6eONoxhjwkEmNK3dxV002NFOlCj8wZ5h1CgmSQr5OUi5UaJwaGDYRVtmeMOF9SikmUK+Fsp+lDYfrhrZI+/+Qo9S6Hip4w1isFzZkhLdWKaBCXKicrV2ws6JOgi0nKj4juTwIkShniB01ickhH9FXobaZRSEl8cvCzcqIIQSKggD8KNsR6lUyJ95zssQhAGGsNMJ4U173ZOC0Gf4Pvjo4JtaCnW89AxWbBEkI1pVk7vberUdPjSifCgzmNqo1wriRTjSJq1oSNUn5JY1nIEREPJmCwvCcUD47MEjoYRnlBI2A0LOzMgEKQ8yTRKELhf1rXF69Np3PFIoH4USwlbDWgJsTAsp1K9CHS+5Fy0hGVOm9hhoIKYl1Gbt9ItFMKroE78wvuEilSciEEI0q9F2GbVbRkB4VY0SUn1Clup5t8WagPDSxTNcJ2QIqYWb+0c55qUSDoo3oQ3hbdqFf/6bLUrI4/Vy/2j2sD6drePl1sEPTwgnWqqVS7IsuGzNzi8+J4Iv8KGgTzAYaQvHzXIN5Qlc5p2acp+UN2DstMwX/CTkAsU5rlDc4LF6hvCSDWGg2eWi7lFLCwlCTo4ODbl6erAJ3+OV3aPfsBRugRAUchfpavaoPp2t4yXWwX3HT6A/rVTbKP2PvXP7bfI+47iQYFUZaytNVbYxbRMaTCoqO0pcULUX7IobVC1SpUgVE/sLYtnkfYkdzaAlwa7EIBAv4m1451UsxVTxwoKDcBwWoJuJMXIvQgSGRNnshSqz5SHFi7HS/Z7D7z3Y5pb44vdzQjjc8tHzfU7fZ7G+uLJi+4lak9qyL8h7EnZXkACkpyeLMLCGgRBa9eC67RCjZDeKw9vWNabrNoQLFTjJZEfCwRBFQvFmJYSzs1ZO2BMCgwu/3KP4BzcpJIQ+H9dHfeCKXx4YU6u96rXve/WHh7qEBK0u1tee1NHCice07ZXBxgm1RCsExZtfLaCzDDHIk9s8uk39CdqgIK9DtP29SkfRCEKXHIXCDEZCLM0QhVgbhZxwODISCoWhR9ErTzOR+SgbHzojIUBYnv6psppRr23F6NcPddXrdaFC1xbraG2/XGt0kMm56jF2GCQZKhE0EhuFAnqNGlo3DI42REIJIcpRCeF1udELEF6iwoyUoyGSo9AqpFA464iEEkI/28ywAzBe7B1gp5kUQRgMBvO+w++ppFC9Nn3b93WK8Eem9oQfu8dkXcUYV0W0OQiKfDAWy4HFWiYZM7Q4rzCR9T1nhLBJCPsT0J+4R66/F66zGh2bqlSeP334R4Lwd6f8/v5JkKPUrr9MsXCWAiFGwqERjycc7hcMcqOQJ9fIfRSa9SBHhR7lmxTeP//8R2qVQr32TAj3dX6w/GSNI6B1YKnJu4IXBh1CtEGKGoZRrMLUKGSEcVrmpY16F4S8QQEn0S7ALiFCCFZrCwsCQhxbO0EQhkOekR4cXBt+IYRhhLApKUQ3fIiEPjwMA3dhvHmlR9VrYwaXlosQAJckf3YmmHGt7Mq2oJs/Az66QC8pMsIHkBHqOCyjmd1xU46N3ra9ZaK8xoQQkhqdBggrT9cfUnUU+oR+kqND1CkclhReZggjEQHhIEVCqzLz8V+sRQoLwpTQosFUIBj0dhxQp2HUa8O3dd/uI8Vadqnm5K+hFpNukKGJhJM/+MKn60W4jp1L6HCAiasyDbPbc+dAjZ52Qfg3CeGzx+uXAMI+hLCXIeTKjIyFxKCcmAlDTmjtUZDRzCO+zjSA7qNwFQZ/yQcP71enYdRrQwZ/tfv9Yna+VpzPuu8L4lEJVKF2JpiUYzEkPiV89GK6nlwriIwwHTOlFO12MMhlmTlMCe/xKiGOy1Crfmyi8vgxjo6e70M5KiAMe3o8LEc5LRTfEsLICE1wn+x1R0IJIXsAQyBk1zXvhNKj6rXde/W1g0dyUH/JbjgBbFoWdA/GyAzQkCCiINVjxdJ/VpZzSaiMwkFCDTNCdPy1vGXm4DIoduqP4T6vlKNjFoQYCS0IPSRHCUIMhLOuSEgQjjumRx1JId7NhgophELvVKWcV6cK1Wu/wuje1+Gc0n/ncwyfvOji2tZ1z8WABo01hEEQo7FcvVBagvUJbE1gTmi3J9DyFy5kR6MM4TEZCcn4d2qi8gxGRwlCkKMnEUJaKWRBys+OhOH+yZO94+NnRSS8yz4ztNh70Ssb9lgf9aUGOvLlgDpVqF7bMbjtzSO5DBKY4xywoR0BdhUNHQnDCoL04Tcay1b/t4hTo3iUl/sT1sQa2o2iGCUIL/AGBe4xTWOb8NlTgPC8HQkHPSGEUGaFsxLCyw0Q0n00Z3nUghCGZiAcelPlhfLhXyo9ql57FUa37X6Ll3Ole68z/iVbaNCGAKhjPUYoUSOeyJbA+D6t6/IMk40g+zvhHZjTuEuIkRDKMmiAD3IUGhTruEQB1VGAEIdHPbIyg3oUMBymeRkYW+vpGewH61GRFPZhJGQLYICQF3vlpcKAr+wLplR9VL02K8p87Xs70zZ8Lr+mxqEYwNBoZFAHAnUDP1qmViotZtMJASFpUWejnpqEtM5LDQqRE144doHdDnGRaeH5Y4LwBEHotyHkqRk7EkoIPQihv9cRCW88IvdRNB8FO3wvQhj05gNlX36/mh9Vr50YfO2NnemkNK5vps/FYMzGz+5ISATF02JP6gW6PoFTo3ii3joCIxcooEER5QYFrzExhNPYqgebp8ZIKOQoLvbaWeEwpYQAYWgQ5Wgvl0c5KZR3YWBoZgCPUsA6k4Aw5VWnCtVrq8Lo3teTibQbPzeCrmEYI+Yk0ED4kD/gcFTPrVZLK3h9Qu4RmibL0Vt/4gUK8BuN8qF6u0GB8zJjL4IQB9cEcpft2swwUjgkIAyFKCf0uyB8ZEFI95lgiDvoS5V9IhQGVH1UvbZ5r3xn75tvxRLu1fhW/DkUaMyiD9BDGcqa1IwVS6XVZdgjxFV6vMMUlxNr3CQ8Rx2K03yfF/eYbAgnGMJPpRxlCMEKP+Kojw4PN0EIroesR29wux7N8L0EYQoh9AZTgXI+r+qj6rVRUeZbP5DuTDZ4sB1PZRh7M8KOfsSc60ORUNdyK6XqGgzL6GD1G3cOy8ASE9uN4lFC6tR/woUZ9P3FI70Lz9fXLzkghJyQehQR3K5nDodZjg7BFkVoEJzwEcK7lBTKygwcrwc9ChBiUjiQKgfy+Q6lR9Vrn6LMGztjSWDNNZCdcE6Dtg6Bhi5lqCMjNGrVar02LzJCnZcnpOPvR7cpEM7hPTQRBu9J0192tuCUEOTouhUJ+zgSAoQ9MhJSYsiBECwPQyMQCWGtl7v1DCEnhZYcpfJosJzy5QOqX69euzC4TTAoXWGan3sezSFB6WMHQQBwVNe7Y/cLqyvFTFLXTMgJ8RYTR0JkUEIYJTX6iRNC2qGYAAi/pPntVhBGXJEwQhCGoDADMzPjZ8/KPYqPeWbmoswJYZEpKPiDnmE56NuvThWq1xZFme//ZCflfYKxFuUXqxmPRVCbPmcQtCA0NE1fKpQeFLE0qrluoXF7grd5wWQtek9mhJwSwj2maZSjj2GRyZKjp3onJ8HqKdQzJCfXZBik4qiQo56QJ3xyEk24x+/KyoyIhbRIQe6jOMadAhPgIFjN5A8rPapeO7wd39gpiy9Gc/vPUf9E7AxX+iefyd/idefqpeoS9AjxFFo31kdtCG+jydpxygij8iAaO47iZcLpsampysJTF4S9AsIwQxixBClzCH9hQwgGF+PXnJUZPs7EEKLlYcqHpmuBaXU6W702eNu/+V24YJZoUfpsYtDQW4U/B4uG0KPLhepiFgMhGo2a6DbqaNRLgycQo/c4JQSfNWuZUMjRCg/M4NgaREK/hFAOrjGBZHgoIRzst+UoHKTgpPAiH68f4IUmcLkg58MO5fek3qa/V7bv+/YRNEwDCPWYo/RpOHI9S3w2EGg6fqeJjz7anVktLC5n0niP0KTr2Gw2+pEsjdoja7+XF9FkXeYKRkKEkCIh9QnhIgy0KGiE24qELjkaCtHIjNCj49dOQH0UbQ9vyONMODQzQPv1YDQDEdFbPvD2FvW/QL3NRHDrjn2d72cycFlehkI3aM7ug94SQNPJohaPPShVHxTT5DUqM8JRxyIhbxLORS0InSmhhBDGt3GJgiCEo/UiJ/R4OCnkCVKOhBFaZRJytL9/UkBoR8Ib0K+3IGQ96gsGaL03kA/m96urveptZkVmy45dhzo/qG3Axi76VMQs3emOg8SZaf9whMCGykx2tVDnqoyg0HS5btMOkwiDf50D93tY55UNCjkvc0Wo0bGJhQULwhMSwv5wWAQ7CaGNoIyEPRgJAcJTp2ROKCGkuzDUsBdJoS8Am4UBuAwTuPKe0qPqbVYQ3LJjz66DnV2frdXmNzIZptBiT0N9CT/5q9Ubdf1ANJNrpVItAwNrpsluo7arBS8SnjuHxhZ0p16Oy/AuIUFYWXj+9MuHbggnwXkUehQUCSNOOTqEENIyE9jMjPf18XI9n83+3EoKB9DkAp3XghAROw68rUoz6m2SDt118N13jn744cxXtQ2CMMmCtJX41JqkaFx88DccHxFVTd9YLawWc2hzaPIKk2AwLv2dLDE6J9d5eZ+XzmRTXQbvUKwjhOdldRTlKEI4MtSYFcpICBDSodBT13h61K7M/N2CMOXzSbuZQCCfUnpUvU3Rodv37PpFZ9fR+zfPnJm5LyjMzmdsQWpYqtN0qU74Ey9F6PiF1vamhrrT0LrjmjaahoxwnlaY4nEqy1g36m9JNXr8eBTmRoUaZevtY9exLCNSQjL+rTx3QtgnIBzv7cc1CrI9dEZCzAipWe8JT05O+mGvF+5R8ErhDS6PyqEZWOyF62jBIJwqnIJWodKj6r30VFAg+G7X0ZkzM/+8PzMjKPyXlRbK4ozWsgJqR0TN8QDDuPgb8RUvflVdreW4KkMeayaVZURGeEuu1J87fjpK67xuCHmjd8qOhJ++AMLhJgqhLuOB4VE/2MzgCDf5zLDFBS72enlyDdr1QQiFA/l8WelR9V4ygVv3CATfOSoQPCP4ExTeFBT+WyhS9FJzpoWu4idkiCYhZ2K6B9pT0zg86nH4t27dqFdXH2TTCS6NYlnGHHWs1FMk5IzQHpc5dvXqHxBCPE04hSu9D3l0lOToOK9RUFLo0KMI5BBDGBYQ8m79tWvUKORFis9pk0IEQ4AwKCEsl4Ue/c3PVChU7+Uh+GNB4K+7jt784sxvv5i5eeezO3dm/s/e2f00nWZx/EKTjePcc2niJrPrxV5sHGJInF0v9o6L/QM2JPsv1Ja1lTJpbYUKtljQMAQWq2NZN50WIhI0IjSZqS4LLqENCDNoyZSlYLoSnVRc0tA9b8/z/KrjTmaEufo9yIvo7Sffc873vMzBqxZRCxnChIKQg09PjCssSJ7leQhG4pIoBChjjsT88+28nEJzy1YLPcNkLjHJAEUXneclJRztN42jsuVJwtFzeLKeIWS3nqaZemrj0R7MCRnCTroJM9ytw9G/6sHeq8qun6Rzobh0zb/i8m+dOGa3rtnv53oHD3909BSkgpAJZtPpdCadKSSTSWAQYlJIDBetaaGUSIk3t0eBZz6oeuomfUQSPXTwZXrn36WnizxPLwgaBj//qsao59qoTDH1999VSkhbnnDV2rMhixIOexHCEC64ILtet3H36pyQIWwbC6hw9FwNhNy41i6bDzWEf2xdwfqoXZqx38+SCX5ImWA25Yv6onNT2Wwa4EsmM8kCYVgtri7OT5gSKed/pHEcfEo4ajJBIpEyQoQUxHJ8vbT9eHV+fAD/RuGoXvgrE/VnLXdBsTb6SI0S9o+qaBSt+luQEv53aMiihMPD3sDYWIiSwj5VmVEQYnyqlJBaZoYRQqDQjBRSaaa93QKhnzZx4xbglePHfm1Lof32+/3i4Icggicbo02pXHTK54umoiyAmUwmWS4UgMMChKRIoVUKUezckg6K+pkP9RsNZ2J243l+FYRwIEZ7Dtkk1AxaThKSEFI0+hfJCPvvaghxhGLpyeazIatFcQHD0TGthLpA2ssGRa9RQmoe5aMw0sJ9T51IYynETdyuVtrE7W911bU2b/3WvpJmv31HEEQQwtDGXDab9flyqWwmmo1Gfem5TCGNEJaTyXISMdzdndaePcejbvEgasqhuiZq3iD8h/H17ed8oN7hZghRDC0QUmWUbxJ2cVnmEkPYXwvhnSUaZKINM29AGJIFwKo008tWvYGQKPS2kBKq8ug9DSG3rmELt99Ph9Jct/ytk3XHf2WfzrbfvorgB0dQBH25HADo82V9WSAwCjlheio9hRlhIVkohMuIYfXp7jwHpAlqIY1RVzaVQ5U1yJ+aSQ/FofB9xJH4Nl/Kr8+OJ2TVqMNURnGiXldlyKefmSEIH8mKp35Zvc0b8G/hMZivh0xO2A3haCDQhmO9YtdTNNqrGAQI+6htrXMMGPQGcP/vuZqemavcP8rlUVRCXjXTvNXu32qts1cf2m8/CTx8BDLBk/UpeEAgP4AwGxUIM5nCXDIJEIYhKK1WX+5aIlIPNsVQ9QVCTqqDxkgBca89ocefGI7GHJ75x/mKCCHNERqf/uKXF63BqLoM+ujSDTnQO6r23/+tBsJreCyblBAoDKBFARCe6bDEo6osoyEkIQy0eLu7uXFN2fUPvjFN3HS+Hg+FYpUUIGyuOwHxqC2F9tuvMBQJrI/Hc7kcQJh9J4TlcrgaLiTDlVe7s9OWzhmPLo3G6LALf3FL4wxWRLEEA9890zuVUgUPwHgoF6QFaxpCiz0xI7VRM8WEh2D4JpqMUDCEyqvX4WhgLIQLLhBCrYW9UhvVEHaOAYTDAOF5da+XpJB6uK9yEzeNFAqEW80A4UrdiU/s0oz99kUEDxw99bv6RiDQF0EIU/8HwjBIYRlInKoWUQzHE2aZhcoLRQtrH+3WjsVGHOPr+e3S43U6AMNK6OAL9dYbMCKEM101Tr0+DvoFXyYECDdlpPeaNSdsG+vsDGkIRQqtEEJOGOoc83pbWrxk1//T7JmRbU/UuYbxKNZHCcLWZprt/f1vDttSaL89L4cCgSfrm5zOSCQeFwi/LxwFBFkJ4S0Uk+VqdYcTQwOhMSHcFHnik9rMCDv5I47ZjVJpY31xHIVQH6g3Bwm1R4gzTDMyU39DIFRD9bxpDQeZCEIZJ2SfEBja5iIAACAASURBVGeZqIOb7HpLgfRtCCEatV6ul/IoNXFfdcllGBmvx9Heya2trZXjn9hZof329B06iHEohKFNqVRTUy4SD1ohzL4FYQErMwjhwkK4XAAKZ6cnTIXUo0qk0rCG0ifCKMrodgzslEr5p7PzOMLE6sgUXhzkWV6z3wnXbkttlA0KdaqeIbxJDsXmJueEFI6eJwhbcIyiE3dYqKRQRaQ9vRrCEISj2DKDJoVA+A+ergclfPBQrjO59I4LopA2kP7hl/aAvf32EMHD2JtWH3fG485gJNIQyfniP6SEQCFGpGGisLjzcnF+QrmFbpMVct+oQ/bGcHGGiHTMvipVdtapc1uUEoPUEbN0+/Pb1LhN9oSeJBR/YvTuKE9Q3L9PEN56gTYhFUfpWjaGozjMpCHkcSbRQrLqe86cEQjbAkghQWikkEwKhJAnKfApJcQ+UqDwT/YCUvvtWRx66IOPPv4zqKDTiZFoJBWPvwYcuTBjIEwThFNzGsIyMRiuohoWi692d6fHdeOM9IqK8NGFJfVYET2Dq5VSZX0RO7chNOWl21YIKRq9fPnybV7whCnhI9W7TXWZz0QJsXN0aekF2YTGq7dCePp0R5+BsEdBCL8TCNvaAi0cjlpO12PTDED4kJpHacvFJEG41d6M0ehKnb2A1H57Vg+lGYnGVCQecWIuGMcvAGJOLIosMwhvCiGcyiTnsIG0UOascAFfET4wMRwnt5Ai0pjGEA9fsw/PHTFugM7hXsxX8t+iPUFxKlZFjT+BOvjVbR6fuM4Z4fXrN5QS9mPfqDYoqDi6pKYJ9YqZ893YO4oQhkIdHXQ1mymkzJApRO8iFAohhByOSs+MGmfCpFBuUpBTiBCSFpJb0VpnHwy1397UQ2lQsD7Y0AAIOiEcjUTwD0OYUxD6CMKoQJhREFJlhkEsFsNUJE14BgyGapBJOtK4ODoCujjomFjNV2jd7wC1jPIwrxFC8idUcZTmJwhCS21ULsGIQ4Hn6rE4qrZbfNrdTRYFQtjR0dFnIBQAKR7tk8l6tOtRCc/XhKNyLJQ617A+6qKkUENY57cPhtpvL0SQTEEAMP76NQSiBsJ4PIUpoYSjWYQwq5XQAmEZIFxgCOFPESlMaAplfCmm7IeYLDQECN3rG9uvVikYdat/1p3bcn7ithyB4ZTwull1KLVRgfDmTW5aYwhV15pAOMZKCOkfexRUmyEp7CMlhHSR+ta83sCFYYtRaIGQZgqbVRO3QOhHCE/YB5rs976ZIPam1TcGIQhNOYMohAQgQ5iyQijh6LuUECksFpeL1WpxdRYTw9pZeqmOGghBDKc3tisQjFoOwOBQvb6FZlbfz0BAqgYobhgh1C4hDxMuvdjcfPaMo9FzV7QSegnCDuxbU06hfPRRTmiSwgBCeEFtuLjHJgVQ+EDWPdWaFAThyuSKvRDffu8Vh5IINmYbGlIpEMBIJAU6iBiiCmI4muLiqJj1KIQ/oITLC2H48nIR94d6sG1UaaF0rWkI3Y6RxE7++cb6/AQJISuhW+/7rYXwLJ0FNRD2m2hUlJAgfMIQYmFGckINIbZpnxGjUBiUwgxA2BEKjXVyODqs5np5msk6SdFOWaFLlgA3+1v9W36A0I5H7fcemeCRox+frK/PBYPBHBDY0BAMYkYYoaoMQQgqaGkdjaazSgnn3pUTwufycriI5Rk1WuiRfjX2ILQSDroXK5XSYwpGPQynw1RlcOk2QHiWn3TLdOluGQuELIS028IC4blaCNsIwtMIocHQAiEumSEI8SrMeQMhx6N8k0I1zbhoqpAmKlr9K/779kJ8+/1UAg+QCDqDgF6kKeh0BoPx/1A8Go/HlRIyhNZwFHPC6PcoIdr1CCEguLYGP6ztksKpgJRNeuMTokkx8biUx1FeDFwdHKvqWd4v39h8f70LLQrLljXF4GfSOIrt2y++e7KJnaPX9GA9ta0xhCE2KaRnxlKaIQg7FITDBKEcSONw9IE5DMNK2KwghG8rK/aBJvv9lHdINWiDBsaBuwZAME4amIuwQ1EDoWkdzVpyQrYo2K1XSrhQDAOFy2vLC4UiOoYDCdktqttHtVE46F7f3s7jTgsRQocuy7AS3kaDArccUm2UIOyqhXDUzBKyEH7H04TUOXpFhii8NRD2SDxqIAQl7OB1axYlpPqo2faEWviwXZkUdL4e1z1hPDp5B6cK7XjUfj/ekDh1sr4BQ88gCGCQ3Xmqi+KP7BQyhG/XZdJTqmMmkyxQ9yj1cGslRAgRw2UMSbHkgkfP1CQvL/WFr+4R93Rle2OHFqwJm9ZTaBiMihBiSsgJod673U+1UXQJsV3mi/tUG5Vz9TzT+/crn0phhjq4EUIyKXRWqF4f/AqbadAnxIVrAe/wsNWkwB5unqS46nKJY9/Ml7OpNrPlujN54tgBuz5qvx8vgk4MQDEGFQid/CJUF3VKfZQgtEajRglrIKTKDOeEWB9lCtfWXu7iWnsz1OQWp2IEfcLEvyqljdXFCdlyKDNMapjXjE/IXVA6U3/pkjlB0W8gxLIMRKO0+fdr5dUrCFsUhNjBjT0zb0LY9waEau0hD1JI49r/2LuW3qjOM7xoN1Wy97JSFkRdRBECFB2VNl10xyKLdtWqUqT+guEM2MYX1XiwzRAOxC0SVizkEoYkMowNxRdUmBKBTQy2kQfZxnDAFhkxBo2EbBQjwLL6vdfvO2fGha59vrEH/wAevZfn8o7fpDR8FpC2sX60gFNhcsA+ef9PEYQE7c9370LgAfwAg4EDQngKwpyAsOiMhLyYqaqETFGUZxfolUoGjKtzePKz0fqZ8NiLqYWNk2svUSuDfnp3IlQfoYCQgg51LSN3YP7F15gwcRSo+otvHj58RvLtOAg7IGWmC1EYB2F9FIQoXDMYFHf9BdrMjCtdzykXIuIOw0Jb0o8m750hCEVw5+emCGb8v2SoBlId9IMoCJUljCxHFYSmG/0flbAsIDQtaWlpY4IIQzHUpwwIoR8dWXpZeT09KTx9Ss8Rio/whkTLgJHwmKxGHYICNWsnZTdqMHgPQKgMRTUIyUfRk920EmLgWvMAgHBYIy6YKeSbFAxC6EfpKkXLaBoPhib9aPLeaRSEIrhnl5fxA1iJUiPKILQQDFg36upliupkQu1oFQjdSmgxiCgsbUwQV8Fv0LSkp1INI3PLlWUIaQOenoQ0lHv/hZ5hwomQ7BO3Kfz++JQrWeNDMJQ4iiB8yJUwBkI4CcMghJEwWgq1EnYhCJvAUth9KJ4APG7lowDCNDOFcK8w7KwLE74+ee+AwF9wH0pUYOAj9PxM7UKISxmRy+SjBEWxVjvqVkIkCgF9WAtLZTMYXhEUwtGJPuhG+2fm1xcf4eIGhdwxwZpj5qXEX9rLgJdw/36VrF22DgoE4YoBIXoooiBEBTfmrYFwDYbCnlqVEPtRAeHwsHsW5sI4o5BB2KkkRVtLOkyHF+uSA/bJe2sR3LZt5+9IHur5Od/zYCvq01zog3XQLYTUjeawEMZjnsBOWGMxE50JdT9aKq2u0npmpFfZQoPDVO/MUmV9fgmE26yVQb2MshMUug0gvIRbGWci3K8uJnRQWJZw1IDwzSYg7BhCzQzw9VUg1EqI+b8Gg7iZab017NL1D8YlDt+UQbrPxCBET0VywD55b9uHkkA7A2ygn/NMO+oHeW1HqRAGgbsfzVNLaiqhqYVioWAPBVbCa7VnwrIsZsrcjwIKy6YYXum3Bt+GVAo2o+umGR3pt4I16kYHY4G/l5Cf0MhfAOEZrIRf2W6ULRSwl3kqIDxoKQoGYRcmXFgQ1uOPWwkJhHCksLu19WC0H8Ugbj6cjcFrGDRjCmK6ED5vCz/79UcfJ//Tkrf5MsZAcA8UPk82McJLZHgi9Em2jTDM40AIJibEIPz+zUm3oK1MdCZU8ShkzaCPgvcyAEIuhjP9ZLWHWPxU75PlyuI8CbcbKNeJM7fVUH/jABTC25ixhu3oFL7jzkTojoQY8vQGjsGcVf025o4eGjiMbH17FxkK98aHQuhPgcVnRyGUQpRw62aG0p7oMAwp10A1k27hKG5QcYO196/JwdDk1S6CYJHANtSjVYxHAHSeBaGsZXAlk8tZgoJ9TEXJ/kUFdzUIqR+dVbpeSiGhcAIR15dq7BtsmHi9vLgIPD1tZUhI09dn6QmyMEErynsZUwdBLXPG9dRH9jIEQk55YtUa5Ft0Mwg7cCbEgxQ99TGy3gFhO4NwuHXYCR99cIHb0Ztpzh/dhyAsKAjDT5LVTPJqtqHv/2HnH3ejUzcHRc9jcjACwYBmQlbMqIkpzyB0si3ufikgrK6EPBMeRXO9gHCB+9ESD4b9sJdpHBzsfbK+vPZoibYyKTdzW06hsY/QZstIwJNLErKDQiohZFtw8i+njqKfUEB4REFYH9mO2kp45AhzFE3dZiaMG3s1fZQ4CgQhha4ZELaEdTuSqxTJq9rFvP8z0KbtwvrHX4JA32lJ/QwTFOhhyuV82Y0G+btRlpBpQsp5ensl5IZ0lYrhKhjuR2BJOtg4uVxZnl+axtLYwGkXDcgQ6nFsvUd4m7JliJ5wrYQq3iaqfhT1Mk+fbQ5CMjORZkasFD04Ejog7BgCECJHYROAZTMDN3s72UqRBq0MshSmFIbPw3D7bxKqMHm12tCi6UJxEeN7uoWxVTATEPQCBWEAIGRPfQ6Z+nxsJKStDB5lqp4JY5UQmUIohVgMzWcOUrZNM7pYWVuamyGavo+124zBL26IWIYu85Kbl2K33ULoEhRXUTd60XSjT++/DYR7UTOT7bEEhQXhEIKwmYnCCAjxcPbNm8wUkrW3QAvSAmauhd8k/WjyorsYYOV9mAPzgDHAIWHQVkMdB0W2DS0pVELmCFE3ClsZZybUfnTsnSrhAq1mcCqkr42Z/sb+6fXFNaDp0Twhcb+kGb0OIGQMXqJCaB31GrJmgy00Zw1HwodP+RjM5iDMEgjVS+GCsKtjqIOPFHYfcowUWAkvyFBI50LTlIfPIGxreR6O/jk5GJo8aUNlF2NqoBn28gwwK1LT9SiDT5kJ6EZ9zpfJqXhbqXrtR8cMCK/VnAkJhLYSLshmRt/GZO/co8ra443JK6JXI6mMXmH6WsUyNtWCs+9Fum1AeFku1UuyBXajqJc5+x2DcLh2Jax3VDP1ERAOAQib8XK9+ih+kEr4ACshnqSA6/XWSVFAU2FbcqApeToJoi7G9/IeAAt60Qwa5v0oAKkyusrtAHl635oJHYKiSD9u4iGcRquqhLNHrXi0VNL1qAWiqYX9ryuV+SeoVwO2guIPU7oZBRDa5HsEoRkKp6amzlhP/X6eCE+ePMfJFqiXWbEgPKGV8LCzmMniTAjyUVmQAgLjIAT16MAh9vWqp/CCRABjxgWqZgiEGLnWFraE25Pow+RBhv17cMhlV5ChXagz/ekf+idxEkFELIPTIH6C4C7uZUA3GhGO0nbUDITn74yN/fgjxf/+RDOhwWF5VnjChXKJF6SKP5gLR6bXFiuPYCDUyG0IOxw8xcEyqFdzC+ExLoRTU3Yi/Ionwu/PfXOVCYpRiLaAdvSflLV2AhiKVgWhQdeRLvL1Yg53D1XDHnz1gE3KWxvCSoi+XpekkKAZDAFO4+HstDgp9iFJ0VLXtuPDpB/d8kWQMuw94ByQFcSZ0ENiIsZLiFYmE3EwkZUwF9C/CEHzitCIIghZtUa++jt3oBJSBjdfoziqtl7RrdFihj7YjK5OTiytLa5BGFuvrGVStJYZFHrCpjtxrMUxddRHw2Uo2AJFazASgofi1f377KE4gTxhaxSEOBTupVLYY1EIrl4ImVEQHob7aCpcIxCKihtGQuhGLQhhTdoSFpIraQkEAYGgTQtgE2p+Pa6FotPORJAY6CAYU43mxETB/MTdolooHBCaSniHYvA1CB+c9VEzk62EJd7MrK5emV5bX35MUWw6EaYGrY3QMdT/Q5pRnAjxTv0Z5ScsQUEYRBC+eiYgRNUaytZilTCLt0IJgH9nFEZA2N7c3F5dCf8tJMV4OmIq3FcoYN5TS0vn6NVPP0pU3Ft5H7qNR0FPq6DniTQtOgmqhRDqYAyDOUkcZZ6eSMKiXct8+R8XhG4lZLK+bEFYtpVQILg6MTdfWX+ETt5G9vJK5DZh8Lp0o6YKHrhtHoWsMT/hkoSXTTf6PUVvQ7zMxZU3b4iq57zDWu0oURTUj/YAYVjfk1UQZhWETc1YCu1Q6FZCISls3NM+yh8Nn+/4MJGubdlR8GOMjIHAinw+oD7TsxxElVAtE+UH1cFEgjXyEeZzFLOmVyhkNUp7GSAJx85j0JPMhEeZJ9ykEuLXxpWlxcryE3LyNrjnCBWDkrmNzSga6k+fhkJ45rjIRoWf0N0odaMvXjBVz+0oitZqzYRZ1o/aV1UJFYQacaGVEPOeGISaNIP5o2HbJ79KVjNbdx+6c/cewBPuQaHUES/o7mNq1kHfj9npaSSEyN9owpND1Uv0L4IQyqDMhEe1Es7GZkJ+CwaDc/MvTTNKwm1NXhOtDF6AuXHpa8m9JzPvaS2EbGLi87wCQhZv31tZIZpQ21HTjMZAmO3C9SgEcddXg3AvgxDN9d14ul413ELXg5ECNzOdkanQoPF5uq6l7tOEKtyifSiRgj54k3zkA1kcI+tQtu5WzYNVIKRjTFAHJWXtrovBYrwS4pFQ5zjaLLuZZmtUQoTizMT8egVT73sb6G7vIDajp1z3RASEtBoFDE7FZaOcvC3xMiv3Vp6yh4LvokUoClsJs6zirl0JOwiEKFyLaLjpOhNwhTEQFshKAaUQqMKkFG61PpTOSASQVuHhOOi52jTrWLIKGRFtZ+IglItodBCNpduRxFGmKBiE55kk5HaUU0ddEJZFtkYQLK1OjmwsQ74aNqOnKGHNDRo9BZXwOrajpFe7zWIZWMtM8UDo7EatcNRUwpWVFw9fIUPxna2ENBMO2Jkwi5bC+pog3EvaUQFhbCgkK4VGACMICwUEYRsFPqXDcPvvExX3VsPgtg9MEQRSMHDE2Jko9BxekFvRIJoy6pN5IucHyhHmkJ2IaLcJgsUiCUevmSo4ppd6ydTL/ehRDLhYWHCUa+hlKpk6OF15Of96kiNnBpmn71PlNsbec9rvAdjKYM7haWhG5S6oVaydPEem+m+v6m5U07dZtTaMM2HT4QGDq46OIx28HgWqsMdtR7OQ/otn67vA1ts+BCncA3wq9JYlKTCHW5y9lDWDGdykYEuH30IKcHKgaWu9n/9y55+8wMsFGcFhnIiwhgk/425qIrlOKFfjGzBxEBbjKKwGIcfg/8TtqICwLENhaYEoisnJudeLi4+fzFCkhSRaOLky1xGEnCtzgHl6BmGVbPQyUvUKwhViCc/ybUIRzDAIh9o5/pfUowDC+ggIEZoCwuamgSYzFAIID/5wi4RrGvfUyfGjmHPBICygeCas+yzcnqxmtlolfO+D37I6hoc/33f5CK58Gd/NNqyiB0mulvNzQhP+l72r+4kqPeM1e9Gk9Z57N9lkL5pms5oNqene9I6/wWSTXvUSZshYZAijIwwQT5WwFxtWdkL3oE11YBW7bJSRZtWGAkOAAI4dGYITGIxZIoRJChPseT7f95wZ297PGYwRo3f88jzv8/uipEN/S3Y3pf56IBQHhR+EZhKuWpOQFNx59FCczHoYrG5sr2kFExehjSgGTbgT+empoj54ltFJyLfRadpGj493OfiXGQp7EnbWgPCruiAcYBASRyGFvQ8pAphG4TOKH6XMNaoqpEkYj09lC01hQVPDofDUR2fBLNHsukkn+Z5R6DPwIvoCg5C8ExGXKQoNv7dvozeMaO0xeCiAJvzvk1DPoygfLZWW1jbLb4pbaxT2m57wuyekEdSAcG6IK+qt2G3GIFrqvXWUwmXwSegNwuPd3ddjL/QuYyYhllEYEGLwobWPxgSE/QMDso56IBzvU/moX7kmr0IkCnEGMgizhSy6CkMVd6NtpN6z8FykFnt+yxL+2dEJ6AQGoeuwXIY0axz5a+eNUi+hpB3CJLy7+D8n4Y54mWAUniwdrReLGzlaRlupkyLNk3CE3BMWRQhambk5KSQUDA4blvDvJtgCQXgMZkIDQjFRyGGm0zcJY3VBmOKUmQedkPZECcCXgxpu8tezhrs9a/czRb2N9N4nv/vwVPhj2WgcxS/PfNFywU8MRvxQjCStTTQZpOjpJspBh9w/keHLqJHLwCKqCfjeKIRt9P+chPv5/H5+fzZXqVTLm2JgkmIYOsqMiIXJg6DF08/RadQ2MQ1LA4WCkPQyz48PoJpwTHoorHW0Hgjb2sybMBbr5+toCvN/ezq9fz0OVaF+Y6/soxB8yHn4vI8aEDZNh/tog6KQWYr3b6ER+zXoZwdFrcbZTph9j6rRbj8IlxmEj+uDECfhu+B1lN+EebARrpcrla011G1DmEUrS0blLKNXmUkWjSICR9nMe92iJyTgift5p4mqP3iJbfVjNgjfMwlhG/WQZwgKA0IYhN4kfHDFW2FrQPhQ00dFNMPN2XyZiRYS2UI8DMRvSBR6D0NYSTm/0CeNUa5CxmDEThc1ajWXByFmjWKsxYoNQpTL6CScmXmKHorFxUMDQsk8rPcmzJdO5jcrxfJGbh6lMhPUOkE0/YS5yiA/oSAUsQywEwtmEmrAE5vqCYSQvf1vsdV/yVx9YBIO2CBs6w8cZgiEtI56k3D80iDGcKtmRuLwnyEIoyLhbuf80US8PTGViGJBU7iPNuLD8DSiEFCVtA40EXsW1rwGnSR9o2OQf3NWAtLtFekllLsMnmZQtkY0oayj2lpv91HkMQj/0Wa1uC7tL5aRd8KcRkG5PSnCbVsssyA8vXWWISshMPWcL/P27cuD3devaRtFmrALEw8HFYRXyMtECm4PhPoqjOF3sKaSq3egB20UmAB8mc6jCMGb+iiUpkKMw8fUNfYzQWtv4dPfnw5/JBuTq/iixcFo+4xj23d9vESAmeCEQ3wQcuo9DkU8jLJkTR31RBLyXQYK6+E6eveVgNBQ9argLkkSvvc1m9soFjc2RTPKZ9G0Bo1y/wuCcHIIT6OjxE+Qhcluqde40Vsi3p6aek6T8AUH//5FPBQ2CHtwFLYR3Lx1tA3rmRCEMQRhCkDIzUwCQstdTyDkDOBvaB3tJRCSlQJAiAGkYcpFg66kv4CHIU6/5qThBS0AIij9Fxki6XkNdUz/RKCAwrRkUwvFzAxZCRctEFJTL5nrdzTqqbSDdRT5+fn14pv17Rx22KeleaJVE7cxZ1TbCCnvd04fhNrDhJG/P5iAJ46/pyfhMW6jepeRxnoFYY+AkDUzsI/GeBLGmCeExuwBBmEnama66D56k6wU39n1TArCLMT/EmG4ByBs+vxX4T7aqCvpGaj+dJvdZJ00tWTtTQa/k6MMPQpxDtJZxgahqmW0rX6RLb32JDzEByFrR1d3pBAGCIpHR8gQzs9afaBpKsZW3faff5yctEA4KjVMBoWsGrVBOK2m+gPzJLTdhF1X+wZ9k5A6CnEfRScFlDTBn+Ch6I3CgR5Mwke2ftzkHuI+elPinr7RVyEW2GdBvk1XUow+LIQFTQ19nzl/zlKMOj6BdsDAS9QEj0FXnLwO2QglbVRIQhyEyyLenlEQgnj7rjUJV3kSShkFjsF8fml7vVjd2lpSvRqvo3YPmgfCDq7lnYNOUPzoILSehBYISS4DbUzwJARX/ZjKt+U4imlrvnUUjRT6KIzhm7AtBsgUH0VPJwnX+lC5dtlHUnBZqDRn92LUDOAvi2sp7KPRzz7+INxHG3YYgoqt+UKAgaAKNKeGmnAiJvJeSkEzbCP0Rf4aP++M9FA8NQkzrw6tSYijECdhXtj6fOlkrVKurudys4jBi+yln7AwiPTEkw6+ykjuvcQcqljGroHh0N/bmLPmPQkPwMb0miJH9TrqQfBqnTdhP4OQTIUxIizwb1MDKcz/7QEQUmHvP+swhRj3JCAkAWmCUkgBhPGm34T7aCMPwzM4DP0YjDi1CJRC3oiJlGF2QjAYMBLeEBvTYwThooZbEAi1n/CauY7SdaZ0slQpVitgpv8ru+mBqW+d8GOQrjJDiELvQei9COdGRa/mrySkbBmRrFHq79uDl7uUdjhm7jL0JuyreRPGiKWIUQJpDB+IQFH0YyUMrqOwj8JCOnj1stlHNYib80ejCsIsgjCepZSLpr3PPj4dUoUNfCY9DSq2SICej9T9ZFwRq0mshSO59zgIgwYKzHh6vEiHGZBvL1LIk05Cs47CMKTz6OrJ7EnxpyIeRjHaKT2BGLRACPwgx94PqWaUCgmvS6rFsD/X4o4ZhDAJ3x7wIHwhNKHl6e0LvgkRbwjCr/phAvJhBrfUVMo8Cjv7/GH4N+VRyHy9ASE0hSJVgdmHe4WmMBC/wc+kH5w93+ImMxCmDXuoWx+D0jnhuvYyukKfTMYKG+02ZxmWrDFTT7b6u0LVSxfFNezLBgx6QNw/WdouVirI0n8NbnrrOaiXUcr6pQchtTDBJIQuwgUNd/JgqHNQLPUsWeP8e8yXsY1MNAnHB73N8tIDAGEPSmZSHAAcw42UDjQx9tvDIITz6ANEIbjrr1JrNo/C71A0QxspabhJxx2PaxY33mY+DaVrDf4yRP0MyrIz3Y49EgOrqCPzj9kJiXZCL6GAUM4yFlP/VJdROsyIaM23jnIS/sla7qhaXodB+DUto+nWi+lWIxn9UUDIV5kOLGEaVRDCYdR0wNz3g3Baki3Az0tVMABBcRPSOoogxEnYI9dR1nDHzAdBmELJjA3CPmmk8J1mtLO3N9reK6lrbO3dixeiz2+F3dkNv5J+hJJul030bi0EdfaZL5d02xkZhGphAiPh8g1TTMhph3fFVm/Jt7WXiRUzq6X9+dxGtbpOqTIccUhamRHN+uWwX3JPdNBlFPN+Fxa4Htvu5v1B8514XOEdFQAAIABJREFUG72HFopdICheGOHolwaEfWYSMgjJUlgDQtatKQgvgZvpb6pceyinmWf/0qZCLs7GCSiqmXi0cO+TcB8NV1Jg7iMshXGdSODLMQgU5wTGyrgrK4FGQrrKiJOQ1lESjj41DIVOwlXVrYF21FtHT+ZzW8U3RcbgRRqEYqZXDDJNPwmFoB3I0pNy244a5QehKNZgEt6Znp6e4m302NtGIfeXfEympbdLQGgmYUpBGPODsI33UQAhPgrHOxmE9S4zLOIWby9ae7MEwj3vURhShSEKQdLd0uw9Cp1MQCYTIWCqaNtVmYxLitHAUUYHISZv65sQcMhBa3iWMW5CwiBSFKX5taNytbi1jf6lP1LKKP6asDt5RSoz1EGXUaLpgyC8L/QEN2RjwJO0MR3sioPC0ssgV19vEhIMa0EId5mUD4SkmfEbezl/lBdSXkfR2ptFriLR214ohPto+AHK8Oz5cy5GIAaDDV235kGYcZQgXDFW3gA/MWNIQlKOmpgn7YOhgkKUra3uexislKvlbfIvXZwQvVpay1+oF1vkamgjHCUQLiz8KTAIgyCcFgxSxJMPhMLV15+EbWSuD4KQUGito3SZ6TIg1CBu6z6KzdlR9tejamZv+vbe1Ocf/jr8KQyHIQZfRDLIUJhNVPpeHMm8dynzXvhB9dP7qpiWuSUbU544AP/pK/ZQ6JNQXoQ4DPOltfmjSrUMjbw4CDlWJp2esOegGYSTcx0U94tmXkyW+fa6tYwOs1gGU9aogYJLsvE4+pqPowEQ9tWbhJzCHQQhsfU0Ca/A/4LLjG8f1eJsKEmTPHwAIYjW2vk8Gr19kL0d7qPhR66k3oxzJN/QEQevVNIjO0+7qcVOZMi/tLzsfxPSOuq9CGcw9ldAeAggrJ2Eq6ulo0dr70AyuomSUe8jcjXDEBp+AkA4ioMQQDg6SqrRb6/7zjIm6pBMTHobPdh9uWtjkEHYJSDs9F9H+1kzU/MmFBACXQ/raKcHwi6bKeR11IMhgRDDuNsBhwRCIOsTe3vRxK0/hPto+PkZZ7E1N0cuQF120k3yW9DEi7rM1LtMTGTMUSZQSQhXGQIhloNSWz09CQ/92RYeAPMQhX9t//tt7z1YPsrBg5DkaryKjozYktEnTzqEICQDk2plFjRhjZPv77NYRgchx99LzppEjjJLKIIZSOC+BIoZ0a211R5mGIYimQHNDPwnCHvqqjnNUBo+6kfxLIMW+wSnrmUT2b2pfzSF1t7wgxvpz08Bce80uxEciLyLShOoYzGEiD55EFo5h8umBoaPo9xCIR29AELL0rsD0tHVvAfF/Pe5cqVa3NhEmp4w2CrvQaHp6UU4RE/CuUkGoSi3FywL07DhCO9oHxpq1qCD4lgJCgWhWUfHVbYmurX6ICTxqAfCBwLCcXgUdomG22qvt0KAMWeml6qzGYTxRFPvVCEsDA0/PAxPn/ltCxgqnKS3eeIKSsUvrkUQZjIGhCvdK93L5i6zbIyEyhLqJIS7zCGCUCchvgnzO++u7T8CgrDyH/au5ifq9I5n01Ob3jlu4mH31DRmNcZqrUmNFw89dE/deOl/sLwJy0sGB1gGdoAhbGJCw4KIYlwG7C6KYZnB6EhQZMJMQCCjEHHBbkYmSmamuxDo8317nuf3mxnb3n+/GOHg0U++3+f7eVMY5AchaWVqyMarNaMc7UTZTsDTd+m7jCN0W+iJe5Z/gut5V1Z24Tb6MwlHrXwZMlEEsIqiboIEMxPWJCwvAGG7AWGrv36MLzONBXQ9kBSQcjE7ywnAmLrG0YeRSKqyLDIyctRrpfA+noa/+eufT18IK+T5Tg7zNZQd9PxrWKu2Wa7m8/kK/BMz+iwzg7JR8RKO2pNQqPrV7eDq3flcOr9OGJQCJkx2GnAGOw3paCeUjT6RhDVbuG2BUKTbVEBBL8K3u3soHF3TrvqvYRk162gA4OSXSdjGIGwvACFpR8VSCIUUIlwj6RonccMkZJKCdWtVFEDKr0LopGgqG2k65RWGep/cZz4ESfeb4WaT5GQehcIPJvVh1MJgggdhQvMTRBKOomCGDb2OSYh0vYJgcA6s9OnXGwvsneBKbCdLT80TX/RKMTYZmJ5cNYI11qtVawcTdfN+Oy0kITgJV56zlVB9NwdFtHZHYp4CY8g2+Cec62h5KRB2cDVTPT4KQcPNGEQQGqrwG0f+KPT1smhGgfCfmUgKurO904z3yTA8cux0Z/ObZsmvMA9C9VSUMAu3h9ClGo3SIIzHIexQYn9db0LurN/eXJ1bfJFfX89BsBP5eDVJb2FQV/LKHOSrDMnV9CDs67Oj75mnN/zECjso1thBIQSFGoR3KN1CLZV1/iIgbC9ymOFJ2IEgBHZxTCLXmCqcMiSFyR/l2DUqSVN4zKQyXzbcGPmTV9DkfU6yooIreIWiIP+gzQ86MeiyT8xAOShgEJh608fknIRoZFpaXZxfSKf3n21sEQZra+xObAm0wG767ynst9cMQiyf6O4WjhBWUZFu3+eS+mmLqIesw71//fwTUvXXLVc9RP82EgjHNAjpTdjOpGBxEHa0Qd5aK4Gwrs5y19vSNR1yoQl7sDJhSZpCY6YpFcmUffKxNwq9zyYrzv6NLzNaK0M8odpA9Tpq8iwcapmETniKUx1TnKyEFDlKXkJ6E9J3MLdxmIZiemDpb/2jBichFqE5WPqH+irTC96JXk1PYNSo+qrls16EDhCiXGb3+e6uAiHfZQbtuwyDUIFpQoHQ77qOlgQhhj2pNyFkXAR4H6VHoU0VPhKSgkBI9nrImsG8mWn1MDzhBeJ7n72SYj5wMjl8sSLc2SwZo2wglOaJhGsXTYTsVAssRCNL/SgvoxqEpB2FfIvV7VcHi1u5fDr3iyhlaseZpFcAVKPwqwdcyIuNvDrzXnrQ6DmoA9b6NE0v9gnZRsHMi4PwLQdbSOKoYSgaW3paIM5euPoJBTBRjxZOQm6zZyOFQiAOQ91d/9haR3kfhU/3FFZWmVoKTLlIZU55LIX32SgEf9PpzuGKi81hMvAOV1C4oYDQ0YztqOaF02iUKELkCHVNtj0Jg0vBV9nsYfDd8vzGL/vp9RdbNAdra2rpJjP+eX+/GYRDjojDXp6DqJThnFFHAQybmASElokJYtYgcJRYwkELgwjCHjXK6uHzS1+29FEUAWG7gFCNQjyOGhDeuSzrqPjrOX+0kkTcGMWtbzMUu9bgnWa8r/A+c3y4IhG2pWrSBepSbTsGYcJwhDNx00EhQWsyCZeCq8HD4NLB4kJuP59+/XKBMShtoOOWmd4oRukPydUYg7Z5QrcwmUEolYTiJLRIwpuD1iBsaaF1dCxAk1A9ChGE5aUnoQYhPArr/XUYcdHT02IdZqy8J1Zxk34UR6ENQsgfTZ3zAp+8z/l9cOTs8YthbqXvFNU2KUadd1EqgJH3IGNwJsbh91BXv0ksIWIwy71o2e2lJXDxrqdBMbo8h/1LNQPjGGfx+Xj/gLMMdEi89Ng9cZXbX9z5at9RQ70+jUrQ4aRI1pCg0A4KBwiJooDzqAXC/2ESSlUod4XqSgqLrtd5+LOVLCDlWgosh8FJmEmlvH3U+wqupL86e/r48L+5cyJs84PJQpZewp1swRoMQjAxOcIOxU14mAUXbw4wqJZRDjis0alO48a+RP4lnSpDyyiq1bo49b7a0PR91lXmPp9lprWTcM9iCQettEP21UPgYV2JSVj+PhDifRQW0h4Ow7dE3Iak4OhDnfgk3dmgYcuUVZ3wurO9r+Bh+CEYK3xhCNr2GX5QgdEXKhDKsJU3odNGZ2LE1MeZJdzU8m1SjsaDB3PLz9Lp/P4znoNopieljEOsNmRlyuijDLIT3ZxpUV19TXLvQbjNILQxiJG/K3scbLG2Njh43WmhYMGMHGYKJyFmj2r1WhEQwrtQPQrH1KOQimGEruf80UecP6oTSAGEETrNqN/Kmo5+9gcv+9D73FwFEPfHiY4Ii3XJUYFm/EuWgUJiLSTiyRAUQfYxoZ3wYFFhMJ/OYa6TVqsBPWjal756MPTA3kUVAGUZ5avMU4um7+NllOqx6UHIRUyT5J9Qg1DHrDnSDomhCOjrqBxmrElYTlUwRQ8zQFIwCA1HoUfhFCTNsJWikgPxgaggEEbwPtrwNlXmCUi9r8gwROI+5Avrk0ySxWoJR7BMSIahPAlxEEYV+ihxdHNTTPViZMrGDn5YOMzv7ORyL1Gtdqu2lgvQBgZcIEQLYS+JRp90fQGDkBLWutE8oV+EdrrTlSvcCjqNIBwB6TYOwudI1K8N6ruMCEedIGxtLTYJL+nQNUx6am/TwjU/PgohhRtAeNmh4ZbMNTjN0ByswvtMxExCyJpRz8JznmrG+4oMQwy+CIWaIdapMzncKa6JRJFsp5B2Ec5Qylo0HqerjIJgkEwUwdHtbPYwGqyZ31jP59Prr7dYMToAD0KFwn6rhfChrl8y3fRd9F3tRufE0+7qaquESS2jVkO9zjkUIyH0wKzJbdRhJhSGAkwUft5GJzqIrm/nMItLvI+WS94a+Sjgn0FxvZ9iDw1RSDWFUxA/avrrmaWoAiCSuTdSVRVpyqjv7fTRj7191PuKfL+HlO6QLxk6GUpWhMLDAr5kcRAmbBAiQwG7KN1HSSKT3VZonJt/mdvPo3NiGTHIkfcDjsB7K85CWydwFVWDsJu7CKvtQXjvngTL3Dcg5Oz7lb1dCLZYW9NMvehlTMBMoM4JQjMJrdTDcjvggjUz8CTkWhgE4WVX5ho7KWY1VfhllfZSQE9TBitDvcAn7yuxk0Ik4gVf2NecSFZELxaQE+Y9mEhw4C/4CGEQjo5i9LaDoTiMxbaXfpjfSOd38uvPNhYWSTE6MMCVE9ZR5qEk/TpBCLdREKs9fWobmKpFKnNP/PS6A4ZAuIcBT0axZuJlTOhoERCWGxBeKgrCDm4p5G4mNPY+fuzaR2+zaGb2G44+JK4QSELKuQBzb4PXVeh9JcmKj458eiEc7vRFk2E3SR+yenkTOtMiFo0i/GJcxsQlFChXi22+uju/pcZgHtxLRE4oEJpAGbOMwve9UavpRl7uA31q2l/sSAuiJ6xlVAYhlBJSA8XgYJHbKDIUSPeVmIRFQagGoQZhXT2OwhZ3OxPX1z9ygRD20Ag2NEUa1Dqaykx+4u2j3ld6GJ45nQipR2Eo7JyDMggTOtyJ/PRRDHeKc97oKDt6QbYd236ndlGYgyCUmRcrPcf89o/bom1YRvk5iKJtUqsJTQ/l9IDBaxYGtXD7vliYOPEXMCiy0et8lrlpMp5atKUXrEwTeBz9/yeh1RV62fTCaPnoIzYVkmqGvL1NOvIJbjNHz3lUofeVQuEHHx1TwzAf7gz5Cs+iIWfWqHoOIlE/GjM1MPwmzGaz2wdz8y/Wf8znIe9+fm7uFrH0xj/oxCAo1ah/CTHILD3L1bodc1DkavosMz1iDcLdotuonW2BMU9j5CdsLTEJy+VIak1C4SjgURjgrlDDUUzJfZQG4SyR9eKl0DEXTZmGlELhKa8bxvveQ1YcOfP3cMjX6aIHraBRXkZn4EFIijXtn5DE0dHg9sHiwrPXO+md/WfgpMdsNQThgCUX5TgL8x7shT7e3idXRa7W3e1KtPgOrzKIQYr7/VaW0REjWIPs+59oGbU1a3caWxrJxxQI1KOpt7XkJJRiJguEbRMahPVgrqe0J5dmBjsp6FHI/no4kZLDvopQmEo1VE6e8E4z3veej1bSqEsy6h6Eah2NCwjlQWhAmH21MLf8cj+f3snnyDlxF630yBAiCsetNl5qAu1FEOLXpb0TgMBuO1+tT/xLUj5xgyrqmZ+A2O3nJmWNMeh8EsJdBtO3J/wCwo7/AsK2Ns566mil8yiOwka7NtuMQqoqnGV/vQEhxVz8JdUwOTty47PfeVnc3ve+h+GxM8ffRJMnffAwtM6iiYQgEJXbUsVEIWubm3FQy4wGlzZjwXfLixuv8zs/7uzntnAOGnIC/IMwBvvZuzRkz8EnEnnfZVTbZOO95upBM+FOuhQUT6O7lLt93fEkvGwIisYeOMwE6gmGCMLWCZLMuNdR+to5hk0NQgi58KuvFTbZMfH1qmFIwjWyM+lXIbMUnHJRidmHTQ1N8GVSmRN//K33X837Sn+/huKYxMUogC4cStgMIR5luBZUWmAIhDH8a/NQ/ci+Wpw7eLG/s7OT3xeSXsu2nXfRIat1gkh6LmAyyyiDsK/P0cp75b4dLDM5QiBc2YUnIWfLXHffRlsoX6anZwyWUaQoSoHQfALC8rZL5893tE2cV/gbC9QFIGeG7UwKhFNTXwNhf/v2FDGFEMUNgfh21kwD3EgVCjNNaiUt+w971xoT5ZWGO5GGcHF3011L9jrdoYq2WFdt3Wy8rImGHxYCqzCmQLMVXROy/nEyI4hgdjRxyIxGxkuyBBULRm0qQtVpNerMGIVZ60wnjCl1YVyNBFcIlbDEG5q6533fc853PrUyqD+/oxGM/pyH9/I87/MsnmD0o8Z7HgrTLJ98EL18+eM/HfV6Y9oxvdqM0mZUs5bZ1s4QyGB4t7flfxc7R+9CHbw9+N31rrAg6Su1UHpdAJrEIKVONFEzGtkeUY7pNUMLYbB2RMkEPXlYrkbR8negu1tby3ymO+iFkF5WCNE+FBiKhEGYA1EUntotPh+eUrQyGK6BfhQF3F//a/fevQcHek6fdn2hVUIe2Usg5Cj0A1MIIJxrUIXGG6slXTjvA8gCvaxgkDuNBmgiDAQpDQ3FMlAEWTHs7W2JbQt/Fb5+6zY8IAg5SY+59Hi7RGVw33k6nFD4wSqplNkur5fqItLisEHLQTunGqyRZhQK4TArhFc1xZqmG9XtRqkbZb0oOR4mCkL4P77WnBwfHDK1FhQU5OaWluauYW/318hPiORsTbkWsmspaRgO43c6MJYCjntZP2pQhcZ77ktKtxQWAwzlSKgP5uV3hPyQsLe3FxDIRsLgv8MXu0avAQSBpO8Ca7X1nCBsU4y2uatTs3SUQVsnvhdVFqN16w4oN4SnTh3/p7hfQoaQg5Aw+BA5QqlY08USfsm7UX5Vjxjk+u0EQejxeaw51urqAga+FXnsFbGXl7d4RenikpI1bCr8tKcH3PCFE7cSVShUM35+4VsTH8qIG7G9xhuzGGJkBat9GjnhDXoDwtIigHeEwuEJ9jLtLdvutH87+mb4xjXWifaRWI31opgESiAUSxl4F85LflDa/NJeFA3vt+vICQbC4xpLf07n7UQpTFcgmRcx2D8grnnJXIbOmPhICHVwB6RQbNi8YTP6bycKQp+tdgsCcHVR9gRzenp6WqrJlMa+midMzSzKW1xSzp24eTsKJhe8FKJ0TfD1NX6yucifbVCFxht7MmTFsEyjJhCF7SQaDdIRIQhlhM1aOxTDb8Ofh28OYitKsS9KL6ok8ap1UPOygCteuuOVdhYHpE5mnXLHK5InVIrwmLiewGNeqVhTvA45CFvprL4aQDieSmizMgSuLlo2Id2UkvxaMvvNf1ix71NS05dl5ZWU7O2BdlQI1xplP0oCUgQhbEnRdm3IoAqNN3YpRBXbh0G1EAa5wVqwPQo8IaxEAYekGm2588PFM53/edTXx8rg4DWNpKedjHrESxw9CEY1Q5lddMWL0RMR1oeiZlSotkm3jfPgORWE5CvDQHhyGCnCB/0DMomJN6O0lgGCgnx/d6BkDUC4ZQwQCrICmlF3Qe6KomWzAIDPbt9TzZlZ80vKG4V8NCStZngplCD0IwhrMuYaVKHxEpkMIdg3EI3FAgjDAPe9b2df0euX/b7Twv7e0nInGrzzwxlgB+9hHXw0ivMgXtIDPyh8ts/L+8ELurOJJvYn3i5t5wjU9aK0lME6qHkcntXkalgHH46QvZNK1H9GWxmweOJrGeTZEYQ8DoYEM+6nQFhbkVNfC8ZPOW5WBUtXFplTU563SklOmjN1OoNhT0/jaYZCV2NHyDVS4xBjoV04PjmwH2UwnD1/lrGaMV4CLekUy4Liowx9AW8gGuAgBHoigJ0oa0oDUdDI9Hpj/+3q7Lp+69FtXR0kv/v9aho2Jk6Q03aV4CagGW3S+MFInS6ZHsgJjSAkV5kjujoI7AS5O2mrUSHd1kC4kbejtBwVexn2q7bW8yQI8Zq3ws1gaKu3rmIQnGUaGzEpc6ZmseEwP7+jsd8VwtfBCXs7eR/iLQUZkA5lGCpu4yX2wH/mw8DlQCwWDMaQoUe5DK5GAYi90JWyf7we7vzm7uC9298zEKK5IccguDoJDIJKZqugJnjqS9UJvF0Sou0mZScjo1+OK0qZc4pcTRwRUkI9ikYfdB+UuaBaN7pRIyhaKZpQM7f4sUq4c2etrX5nhZtVwbzs9BkJzW+sGmYCDF2u0180gtGF2MwgCCEy1An3TPA17jdU3MYbRzH8pBgSmICdiEJRRKtR9FjDhczj6OXA6MVw1+ije3199/v67g3eGr0J/CAJZRCBujN6zMM+ISn6KjYGKiQ9eKsRPyi6UdXyXn9Mz5tR1o0OAwb7B+iOUAHhpt0YAyPcZQCEmItWjfqzLT5RCZ+aCVkfWsu+9a36aGX2rBkJ940Ew/K98UaH3xVqdMRdshLa8aCQE/Y1Gfb4zPlTjX7UeIl9rlKnvF8M65loMBbgltvtAUokjEYft8SOPu7qDF//jg2DUAZvD966cTPcyXtRGAb371M2MpT50twsFjKXuE5GOZyIiPQlaa2mGhwqdZD7jJLBGnladGvHvJpkjVKytYPeDRtEJJOP1NvPWMy4PbX1FVbrqsQaUR0MZ2VOm1vOE+xlJSQfYCesZVBBGq8ZOmZQhcZL+JmmLJxX9hga0ihJt0mqBnFMrE3tHWWd6M1rg7f77t//nvWid29c/6ZTzoOAQZWaaG6mu4kqQdFXCbkokoR1T4ROrOMrGdmLCotDzhDSAdMVcjkkduLgkyf1bCCkmXCHBsJqOCb0IQhrPc/cjtbXV3gKPsrLnjNuIiEZRsPyUEePywXeh5p0zY8gJB13PO4/ZCTYG288KHx/QVkvZBHGAtxplNVBKouB5Z1nwsuXl5WV3WOP84Odohdt0wydYB6ktSjnB0GoRqtRDMSW46B2QNjASXrdCSFY/ZLXr8Dg8EMylulWKEJ1IvxS347CPWD1FtaN+mgifBYIbe6dbuuqFUWzkl4EJqap06eV5De6Rlx2nWiGg9AB5TAeOsv6UaMUGi/hwTCNDYbtgViUzJ3weAIx6F3+t18v/WXhgiVLFsArLH4EhjIgGGUgrKxknSg81WWbc/RUCmEtg/xghFyd6uoUfnCd4AfFPEix2IpShm4Ir2iFkDejB9U4NJgIN7WS2SGCkPv+bvbBo25UgtDtlgbc1tK87LQX5NOT0mAy7ADNDH8O9D50kg0w60hdGc5jGXOnG6XQeOMYDC0Li8tiLYHY41gLwyJrS2Ne74fFS38zecm7770NOq508xSLZUnhpL/8lY549+wRvejWrZKbOK9mvuzCVrSJuxuSTuaAdjchI9AEP0jj4BG0+gUQHuMD4VUQbsM5vUJP6LpROqCAg94drRvwgKKaRGtbYCb0KOa/No+tnuGvwpazqrTInPTCEElhxXDx7FBPCHwuOuzDDjjuRe0a2a4N2U86hw7PNlQzxhvXD3cza0ljgfYWOGIK9v7DGywunLyE4S/NhJ/V5NeSU1JMvzK//e4ffvrOV29+Xrm+snL9vjadUk094eX3g9CKSmO1CJo6KfxgQ4OOnBB1kG9ljglrJ2QIiaV/CoMbOQg30gFFK1pb4HLUx0EIihm3COrd6fbUglhm1eoXLoMchnMyp83OD9lDV0ac+fYONJvxOxzC8MkZd/jjMw0vbuON71OFxZA2Mx97vWWTlrxnTkt6UkWSnJJq/vnkN96p3LOfjYT7tgpTNR67dEIXfQYatSYKpY9EdPeDDcQPNqg7GclNSNm29BntR6UM70WfqINEEXLJmgbCataO0nbUo4HQ5s5h42B9vTV3ZbbpJTvF5NTM+bPL7Y4Qq4Mhv53brkFAk58NhQ5WCeP5c7MM1YzxxrdvMFsWsZ70XiBYVrx0oSX9R7q1ZJN54u9+v37tvra1bXi/i20oWPw+gcFdmAGKlZBTE3URodnW39ELo1+NnDgslTJ4vjTwoHvgoHbBpJsIN8mtDAehKIQ+FK15fG5p9FThdtfarNaCFUUTXoGwM2lq1p/LG0MdDoppwlLo9JPXTE2G3XlsaKYRk2a88f5whzVpcdm8wkWWCWnPGZiSU1//2S/eatvaJnwNUbF9/gJnJjhDeKmJ+2wre9G6dVAKG7REbJwGMfiFDgj5Tkb2ooBB9DhUNqOCnlBCCcl6WyMoNotjQg+WQptbGj0BOfiyrahEYTobDP320BAd2XO/NZoK4y7nlQwjMdR4L/CxmjHFsshimWJKGevjN3HSb1krulbz2NYuePn5IOcHgZuIKNzEAeIHydxQ5QcPET8ouAlp9dvfL9mJgxyEKk3PQbiDS9ZaN/DdKCUy6Suhze3OKSgteulWVGlJp5WPNDp4TJqD5NtAFbqAKozHZ843SqHxxv2xSjHNeP45AZ8g015f+IYMwm7mB7zigvdSlVRsaxBU+EGkJk4hCE8Jiv4IjYNcrXYF5sGRq8NYBqEX7dYsLWQdBLNRkZGNiWisHeU+a9UIQl4IlUoIrWj6K1xZssGw5I+uk9p5r9MJHakfLimcfiiFaUYpNN64YZjYhyY56ScT//7WeRmE3YwG2+h2D0qZJpkBitQErGU4P9ggTZ00d0N+P3jo7ElqRXn2y8jwMGTyPpC290/L1dhIKBRrRBKCWKbap4LQRxQF9KJua+7q7NRXigpTZlZJeYfDxb3X8IjC7/g/e9fv2laWhTHjGZMfhFlSaBmWceFCFhPBKoK4MMZNUOUgN+PGaYYNgcibJkgOWO8ZZCHZQgOyAk7ZAAAgAElEQVQehA1ZDGvsMU4MhsckfsYqJAgxViHUi+HpD7Cbh1EV0uw959x7331KdrfJe3Zxj5yQ2ujLd+453/edpptzclnXdCf0wl5XkOPUH+7+7fTfjAeXPvyK4KOIX8yxwNcgn4rK1YRkQQ7BupdteNjgp0DlRKbLM2VgQchTZcQpNM/BtEJEyMUy4g6MVG/Dm9C2aTpafZn614u5mUdfrRX1xjPxWLKQzq22znKRFtoKCwVKxIewmXm9pdAVZN28+5fTX0+PPtD5zyPy78JqYpdS1SjSqcPloj7bxOeSbRyL8juEJJNhGEQilBGHiMEd5MEv7ScYC1pWnutlyMa0JlLw12A3gRj8+v8Z3Y//kky3zGzLPSMBaQGnpGArdJ2JqVHdj+oKkAtZR3p6evqBcaF0TcA8hoGPhzohDXKdjNwQDpzDVr1LPuPEOb4HP/7Jz9MfyJOgnAjFRUK6QEGjUQx5snnkKG4JCYQpsNI/eXoviDRQ2NvPJ8662dWTVpNcvTgmhQtNpvb26goYhaPfL5x6viX2JGxTzv1um5smfhuI+OXnJuqKXJTfAeUTGa7Z7vb756iT+egXyvAHoWJhWpaL+jzMRrlcRp6h4OrRl4wKZ59+9V5UojCa7Ge3s/0zWlPggLSA5t7IvPb26goWhd/9PcMweNrmhgkYyODxwbZ3+kxhQRHoVH/lncOm1cQbZT142b3sg1yUdhPyHqjinfA1o3Sn3mIgZEQIFoqiUZZX0aRiJjU3+8u9wFKxh8ZjyXQ2B+ezswBCTD+EV6F7kojpflRXoDX07V8zp0udIxGyvSvO0a93xPlBfAxuKYJt9QLha4qTEUo1AOHl5SXenAC12kfPQKhsJ1Z8oRaEQYChxe28RdsYYEKGwSdfey46MJ6Zmk+n8YQ97CdMGtC4hdxJZF4n4usKGoU/Zn5vy2P0OIv5bEHPDbwEQR5tKMWiynOQbyb6HIFcqybiLD7bTkitDArWoBvlNibDHmDCQOaig1w4mY5sc4M9yrjZ29Bl/WhCx67pCrZGbt6NZVAp04bBKLqWdneleZChUEm6V9yD79WJTAOPvkC+aJfLZHrnFxfKWFTZTWwqPIjvwWWhGqVgC2BBg98HLXMmxP3gULBQGP5mav5ZMwv3CgmEQIVmoflWj2Z0hYDChY3f252lo8764hG9CIkGO+pAhmNQTGQOZdI9nJvgMduQ6NSH5+D5+bmI2vb0ogoNYrpTyRvKsE4U7RP4IGRPQruIDgoGwnLVTlXXgtlNDKJwNPrwWcTMtbLO21UczTQh9OmkqWPXdAWOwtvfZzobS+2lzvoROeh5pBqfiu6hSGbLv6EXSjVfxi8o1fqXqNgWgTI7Ph70lhMr5CHkolHYEebxRjat6hGEcHu3mqq+qNqB96J8SnU//vBZK7va3266AoRN58RNxL7R/aiugCngu4VM+7Td2Vhvd1Ar2qFINamSWZR5TnVhoeebCZEu+lbEi5JiG4RqYip6wBeEm5uKj5fPRblgzRIWJuRBCUIbvEyp4osUw2AoDSGgMOme5ZwmMSFDoes4Tmtaj2Z0BU2FQ2NTmSXIctrwtaLSQi9OD9Z5jIXHgg2xGzyhVDVYTMCKHvbz6mZiRyJwU97GxpnMMr0HLWxF8SCanwmrL6xQelGOwgfx2HzC3W7gvh5QmDOdnDsR1VsKXUGj8Ie7saX139Y31jc6XpSMMO/KKBn/IexGQ3aiPhr8SDS4T+9BfpZeHmBa8S8n+H3sSp6O8+YN22AILHtMuFadC4sH6YE8Fp1+lms5JoXNmC77rJrTcT2a0RX0d+/WTwvtvY3dvY2OF+fE430XB6WivhQLyYKXXK6NSRb7UrAtTmIrEFwRY1GEYKlSkTZCdFCAWqbovQmLs6HxIP4mhsejDxNmy6Tww0LWLESyBX23V1cIfdidaGap02nvifW8fA0uonv3nWKZQAxygQw/Rg9DUcmCfw6u5wekat7pCQbCkoi0sLijHmN/MfgXmbD45Om9cFlo+H48lnQECFfd5qVrnugwbl3B19C3sfVOe3eRJjLSN7jok2tLmRqC8IR2g104Rt8TAxnKFmWd6L66n5dCNTGUkbH3DIOgGc3TdBRAaHAmrOKyHrRqIZMQPAyfOSbkPeWaTgsc9s1k9IH+jugK/Fn4U2a3s9jhu0H+IBSuJa8TFacHxXq+i51o71OPjg+SQka+BtWhKCbKHC8vq/Ylq4ZaNYNehJC7jRCEnLViylirGnOPfw7fzsdQ+DDh5BznzO3i4V7TnJjSCaS6AgfhjfFYZn2v493+/PJE5nBQpdYVtqWP4vggtw6KW7wHfh+9kMlwM32NlDJiOlrk2dtle816WSzPzTy6AsnYyI377F3othz3j0gBZdymo/tRXSHUzfjCrnrxzDt65u9ExSF6HImCY4IgSAMZ8R482NlROtFNqZJZ9jDIE7dBMkqtqHgRkpkwZVVTqTAHo34UMi68LDTNP0DNzajQ1aoZXWF88+5MZdp1jwelVBR9g9SINvhqUFzB7nbp5hluJWg7v+8zTPgyfj0M4h+LNoS0paewUZqNQr5MtZgqF2ef3rsa/hm5cSseS0b6TbfJkOiajpnQifi6wpjNMCpclBgkAHpqbWHcbQgW7DIS7PXINfjxQh4e9InU5H6eY7DkuZesEh4EzZNklCIt0D1BaYdrrBcN0kD4f2EI+dxmYZUy8Vk/OhnXoxldgX/tRm5PZfaU47t16RskjVpDlYkyEuz3Pp0jBi88t8T+jjqO2fTU2qSSETRY46rtPC7pQSZDdnp6ERqwoCgbDIM3r247NzI0Fktmm80cxR/C3V5NhbqCp8KxhY6kwTqka4ujgyQTVViwK5zzcjfveZZ8bahvL8F99CVUbGMrWsmL9yA9B2FHaONgpjz7+Oerjfy8yVDoUvBTwexGpse0gFRX8HUrmuEZFnVlIPPerxPlIOz16OYgbiVEF8ojLA58KORvQUDh8bFw0mMBBRINAviQCkk4apfXGAZvXzH1QEeabkIot1toOkl9HEZXCHVj/MfnSIQy4F4MZBQEkkINQ5wuvPCKfZUFZRcqvLuiLNzRWyUayVj8BlMeaZDW9PlUtVK2i1WGwdErb/+GxqPzie2G22JvwkhCbyl0hfIOii8s1hfrW1vv69SJqnGGSpgh14j6ulCvD5XRvkiCkgfJxFuDmUyF5qK4IpRcaNgYLmPY1TL0oveHr8HvA4Sk6b4DTBhhVKhfhbqCp8I70QwD4aut9zzdXi7n+VoQ7u72eiJMdMeLj9ncHHgKLg+QII9Vs2oyzAImoyiVwRch126nirCb+CfD4LX4wuPC0Imsuk3TTDwc02HcuoKv4bHY83f1wy0hj2mgYUn65jFU2x/gRFt58RAUgxi5meebQTQt4WoQnoMEQgu9Swg/2wAPE7iYbKtsl4szj64L6YyAhC1dKGxHXPYq1ANSXSF8525HM4pp0NtKoDwNU9SkW3BnkAVXvtCEKjxIj8FaBbO2xRm0fDGPVl6EI8xlrCou6a/Ntx2FpOms2111EjE9INUVChUuPH+1dcgx+IYunQkW7PHYCtwKHqj7COUVuLIitvKSBZctlIqSa4Keg3n2N+0I+Z5eyGWK5epVLum/3JFOpN232UhanwzVFQoVjkef19+99kU4oU77E+pDZag9p8ADn1uXn79e8VOgMC6V6EUo5qKIQcvIF/mioojCNcuw7ateEA6i8Dag8GTbiSRj+k6arhBqKB57XpeLQf4cBLcSv+6iTkMP/CzodaH8nxJ/NYubJio1saSnoQx1owjDIlJiPjU3849rNoXE/KeEk0gkpvWdNF1hfOMYFb4+bMiJKHfNcw6UyjRFms2nMMf4o1zA5n+wD4WD9HQHlE6/AOwsKIZD7qs3bOhNi9YVOSf+NwrHYpOJiQTrR/VoRlcor8LYxPvXbxqkUKMEtV4P56E7+76NICWnQR174BM+JWHcRZ2oRQZepEL2k7dqhgVzUbrCBLnbNbuct6yyAYrR69fyjTwYi04nEukJrV3TFc5/+9HJQ2mb71+CQlTMQyFJ239XCX+OURfK5aFeoKgYxpRqfD0ImtEKtaMGGHnZR5ZRy6dYMzr7+N61/JoPj0cZF07o0YyucF6FjArfkEANIEgrCaFKU0+6DK4hJAqXB1DoAbBWoRVhhZOgV5W8UbHsuWs2lPG4cHh8ajqZSMa0dk1XSFQIILz81AOb0oV3V0kVhkpnhBKmzRpQi/BmEQKp/+R6bcmCkDIKGLTy8sN+UvlSOTVz5art/86Fo/FYMjE5pR32ukJpvWITjAf7cFlpX/SheFLJv4UQTz949i1bJcvCbXyJWk/uGaTNYI1DkGiQQTBvIQQN8TFqVtFas2eejl7fwceNW2OMDPWJJl3hjCHik91PcGZ3XzFHqB2oJRMLLfxUKoLyqPMkRYzAnUWrQfYXjEQNGowC9pAEDfxYZcaF13Aw6vu9DI3HY9P/Ye/sQdvY0jCMbNmOfpw4dtZonRjH3BtyYYd1VoVZtlkmC2ILSRguDhIJAmMTN8YYNSokIoiw0E8nEwkVW9wmEDWqdIvZTmUq1dtNe9NsuywDe77vnBmNFFu2ZFtx2PexJI9lMYXJm/f7Oec7mAMMpmSFf+KjrvtxqGtq77v2uxo3/sp2uqfUJoNO6XtKdVmKPsv2tkFZEuXRarJDofoUrNmI8EHtjrsMHW7/HA17MBUrfP76t/9+/OXjh9/siYUiAj21F4CeSqGVncJmzm445NQ1rQulYgvrj5VWtl1RQZkhuWChTeu3I5Farh2NaZ7v4P+nH8LoUoDpWOF//vXLp39+eu+alibyP16BzQqiATFlteqFGn2FQtbJ8KjQIt6TG+fLwgzVGJmc/DgjTZDkKu7HYW10X9v6DgI93/Y2nBBMwwrDz19/+vjpHx8/SwWq85Paamq91B0pzz7LjKdTyIFpOX6ffsXwxvmsCxo0SrJkCebELWndWjb3DebdT/rHwb8PMBUr/OGvHz6KSPSzMkHeg0S5W7vtbu7xRIpcUSiwSKfMkxLpRZ4pwQtCnQ9mbeUqZXJJRuiw3O5kTyORoze7aIMD4P7f/qcYV2PkOmwKQVXy5wwn5Gn1NJNJUnSgdwvSHPnjHfVUdOQPwkJ55Wg728nV2pFcdBezIwAYILz7+v37Xz9JCQoNUm+P9MfTCJXoqlU6QpB0R+cn8VPJsChFKV4LQpFFGulb5OuOFGZBGmOb2hjZWqTYjsbCyLQAGIpH3xz9evquzAcIqp23rCSpPUFJwC+lqvomr20p0ieLbuRUw6Ia55STYWmhnX0XqR3d+eYEANOPR4Nvjz63P79TO4+41iJ11ZG+xy9KhX2qJMOiik/dQaoKVDt81gTJUC6UKddEblg92tNQ9gdgGM9u9EPtlM9rEYkcHZqr3E+QTqcraflSUfB13xWlI3b6yOC0WFSV1Fy7SE5YruXandOdGDQIwDlWGI4d1eRANLJApa20lGBffKQ/W47iVxVWohIhDRClkLRqO2KH66g8ZLtIhRlqTpRrd3X3EgB3wApftWuFnEwDpQLT6YxQXMa2PvFsZjIsyAzrUrxVokc/R+TvKo1UbihzQ1opI2uu3+IwXgC+B3wbsZ02nR3PLlhR9pcRNM+a4iG/mk1+obeFNptNskTxOdaiK1WkUNbJEUmFWSFu2kiRO4ruYkU0AOezvRvNlaod6YDNjBAaKe5r1Hu2GpsqSuXgNF3iK1uJJEPqXxT4BLR2ViSHd2fOLwB3Lin0aXs7kU6J/a8vvsZZo9Fwa7AxoEbyxGZG1WqkGFXJRuWJHdnNL5IGs+WjaOynLfytAbiwNBMVSso4EhRya7AGv4Z/Y/sh67DpOKKQoOOGJa7SUF2mmMtVs6RBNAgBuBCv9uZVukJ6YglehBSnI0Imw0oUGSRVcUR2qKxQRLeqg58VVlg4iqI5AcBIK9x4e5DOsA/WSWb1Rr1VPwelwIatxCY9mpQcsha5cEr1GhJhVTbzi5FCMfIq+lZDYRSAUQR2D1QOyAIblF6Lv6QK6csVlTZlesh+yBXVtOxe8IIassJOJ1ssFI5iGnZOADASn7Z3fNYgqxtUXqvviC1lhdIPnQxR+aGslgolUlCaVr1DbhhWc+mdPWgQgMvi0UBMWKHSYIuQr0OwF9ZtNxzUoV0utb2QrZD6hbmdN9i9BMCleLRkg0UotXauBuu2EF1hqazWEJWzpqzR8BKbkswLq51O4RU0CMBVrFB7e3xmu2Cr1W2NwskQOX90dxNlVMoL3WSFtFPN3eExvwDcJfzx5LFtd91W92vOCU1VktjXoewdVkRiqPLCarGDhTIAXNUKYwdkgCzCc2kNKtFVq2m4m4e0tDSdtheUdnb2ZtGkB+CqWeFxQ4ir1x1Jj43SnR/WB2s0FJJSQBopiUctuvczNAjA1fCG48IKe2yDvV7P7JmSnimvu72+JdpZY7+B0ddgRUSklUw6k64WS5ED7KQHYCwr7HZNEmCPRSiwf1BvmEM5YtclQ7cVUrsw3YxkqjvQIABj4AvvH3dNdj1phF3pg2yFLin2XH7oLtIMqbASeQUNAjAegXiq19WdOHQYtzsOVUwdN1SL2UiETVowCg0CMJYVaocJpUDDhS4epiEd0uzb4qAKW3Ipjb2wm5yQNk5gsRoA47CwLazQ0Z9tgEM/29GqEGHPJcPBvJD6FJisBsBEpRlTN0h24pvRV59hyjdNevZLNa6YtD6QFtKuigMs2gZgAisM7ycsaX1mzxjCdL73DXEgNVQq5O2GFaFBPzQIwPhWGE8qseUNa0iEuopJWY7mUKXUFZG2mmdnGWgQgAmtcOMwQQI0WYbqK08/yGu3MZqqRGOrsG57YbNeoQ2E+GsCMAnb8ZRtevkhpD/qTmRqNxFlgabfqKh0SwfoTQAwKb7ZZMJgxVkD+lMiNAz7u2mo1FB5YT8rrJ9BgwBcg0A8ZZH+HA0aw36YVxLkSil3KwaLM8cHsVloEIDJrVBL6kKA1lfRqEuTxkCd1O2FpMFkDCcQAnAdEQYPEzoZoX6BCvOmHZSaTgvfJcLjZHwDe3gBuA4eEY8auqVb+VFwkUa28Vs9Q2cR1hvd7sFhHLMsALge1KWw8pZ+sf76ImQZ6oazhu34YF8LQIMAXBN/PEXxqD7SCXXDMUPL6HbNHm1sonQQS9UAuH5WqLEVWiODUdXFz3N1ptfjtFCkg9oWNAjA9ePRQDxlXJYSuiJSQ+5+aiWS8TDKogDcBF5hhXljdDjqWkWji4BUeOHBYRyjDQG4ISsMcoFUJX+XadAwLfHhbuotSjIA3BgeLWnlrZHV0Twva5PRqG52E6l9rFQD4AatcOMwMZwUfu2IuvUlb+mGYRmmSAexSgaAm4RKM+c4oT7UpbAM6uqbiRQ69ADcMD7tsPflsqKMJWxQKFEnG8QGXgBuOB4N7qesSzSoW5ZID3VhgxpsEIAbx6vtJy7OBu1f6HmDbBBzDQG4BSsUWWH+UisUNriPBj0At2WFh4nLckIqyMx6EIoCcDtWGL7IClV0Kgsy6M8DcGsi3BJWSEu0+1vsaY8hPagx8YUKMohEAbhNfGyFBrUh7PDT0PNfdK7H5E0hQW0bNgjAbeKPJ/UBEdImQ4tHW/AKmYAXRVEAbtkK9xN57gU6zXnOB4UqORKFBAG4fStM5d1zLnTCMhLJQ8ywAGAqLNAOe70vQoNiUyHBuBZEQQaAaVmhe+jav61EKrkf30BnEIBp4aXTCiki5aiUTfDnINaoATBF6LTCLxyOGtIE/TBBAKZrhfEUdeiFAIUCZ8MwQQCmzUIwnmQBarMIQwH4RlkhEfb4FiBBAL4NPq8XAgQAAAAAAAAAAAAAAAAAAAAAAAAAAAAAAAAAAAAAAAAAAAAAAAAAAAAAAAAAwHfMgs8fCAaDAQld+P2Tn/aw4PX76S4bQUUAc+sBuISttZWlpaXQkuTFC/GyOD+pChfW5hfpLn8WvBC8fPlyfgt/YwBGi3D+D6FHy8vr6zPr9KTXRy8DEw4a9M4/W6bbSNbXl5dDf9zC0EIARuJbm1tcCoUebs7cO1HMhOYmiyEXAosPVukO98S9VjcfP3n24u8/4iQzAC5ToccfuD+3Enqwyfo5uXey+mDRP9mt5p5tkv5IzjOPny2uzAf90CAAV7Iwn0jmQsurygqfPpufyAr9i49XT6QIZx4sza2hKAPAWGHpSkh54cnqwxXPJLeYD63LUPRk9fHf5nGwPABjuqF/5dFTGY/e21y6P4GC/ItPVkmEdIPQHOJQAMZW4f2lTYolhZBmnkxghQvzoU1V3Fl9PGFWCcD/N/7FRzOkoJPJrNCz8tBJKn+3clNGOMmxTAs4ywl8p3jnHj21a5tPxlaRj4xUOeHT34/b5LhANj7//bWx5exdW1u7lZIQtA1uG5+MJ0lI95bHtkL/ypMZR4QvxiyvCt2cW8fxzL38y1zAzwT8cmmduBBXfo/X6/P+j71z2U1dh8IwcS5OICH3CMgNJOggSMAQMUJBCBj3BfakUoc80H6D/QB7ch7u+BYa2gBOzvB47YvatCFO5M//8lrLjjSoDB/qSxL6kanuSg17wwb6eb8yiRn+qmMWVJpwDQjQUFDTkEEsyU0mupqwJ5PCtMrYt5ZCqDkpiBiFf7ftIDTm5/PQaGrRppht9xaynWUtd+gPtZ11tnxVVfGB3WG3w8fxb/mW5ey2sbcb9Hrr9Xx+WR7wYfzb1C7n1eqtm04qqJHz12cq6LIqNQ3/lVVNmyOTc1nG38myeP23sGcOZVFBiKRw0qqnSL6dxh9Tev7s2A7CgeW6y34jhNMrKOL4I47R/7FtJ4mdZImNvo6TMEnIMWTokI0Pon/FDOjTg4kgfDuX9Dc/0HHbDtCvuIGbZctuVTzSOWhs5Ddbv60y0hzUVmy2m5DvbNp4Owm3+5MpGfCbeBoCTGFECb1Ky9rWrsFh6QWjgEKst4TQ0DYgPTT4v3B4AKQKTo/AtIjtbFGWZVYukiKKIgBANP0Ix7RQfIF4m+JDpPEIQgjX890inkXYfkfUgIcYPHdSQmNQpunG5PCsL+WiADpqNbmknsZhGI7H4zBM3AB57PqfIllc1Pwr/mxIk/l8shalDcIIhGnBxEz3rDZl3IrqeiPfsenJ03buKFJRPQoasiJwuCXN0af2YlFaS+TYDSeTyXxnT2kjP7Yr1H3xIc23nM1iHIMKQvzO+8nqsE1mTNvx4BDu1Pmk360cyLdBFGqvnwlCSsvC2c2xty/vMrPLGY0fgBT1hfv36n4hEs+yXL1JogsKwxAWnke7vQ6yNvn2ieUFVu4nzB1tBSEc7ovrtTjk8KeDvJki6QDxwtdMc9DHTpsBoaI5H+RC0dbvGzTYgUtgzaG6c1Ok5dExZzwMhssxuLJxZbrxB13dPpjv0ecE7zykQGWojgrGfnKReixC04OSKZ9tMk7oRZYblXauSjTGaGK9iTAMYRA4Ixe0nxUaWuaNNCQW1B1tp4T0ND356f8iPxUxBWxHu1evarUGON4rE+r91gKdoW9vx42JFVclBInf79zPFT/EF9zIfDemqAv2GEP5/iFLl4wOc17J3GJpviqzrJwLCIURCEe+77BOC1qUng2swLX6awZhOyWE5h47l3rD2g1FW8wQg5fht4b0vyD8ji3OlFxrECIcQsAcw43Wfdo1cD7wZyS8pUBr39ObIETMvS88PGUEwYpSSCBclGLlpTCsO443Uvt+wMZw2+KVQiyEmWYoPltOOGvT3aE6Jt212P84SbokIPIOP7IXlRJG27whllPoUQ1CqG1YuKhwzO4DVE6V7Z9xzntXzDUP5e8PUTFX5BEjCk2lckezhYBQGENpaAzxWghsKbcU9n03sAbIZWOFa2kbCKVlSMvGxz9Sk300gWqam/bLhxD2JDX8BTa1UOvAojhEMWpiZwgZU7r9zvlMtJCeMJZ/stVfIZnUMYU4+AXXc5z7fBPltsJwBbY3GsK+xVCKPItvDmVoiwBnNBRcNNO2YkbRtiyGgZQK/oQwPvcbvN+YSu72Zw+Hk12a1iGUfIoDvp3Oz6Z/Yk76zOlzUjt+pITI3gIyLUwXOUbaWA+1uTYRKQphyJPLPGdI18eTLp6O+FhC2AbWBE+/aMzh+pcfQmh+frBgfjT+nqVAsM2aFhhXc8ImCBHVmbeoQWhgHFCzpsmlM4SSPwY0zYHEl2tggnJIrqo3QQhzl44LQTkkTVQkSaQJhRFBG2EIUdenMQW8zwVPrhCfR1L7a3VBIZyO+SGUf1Xbalw/9ub3aEgRNxWpPIWwNzkEWe36CEIaxQn9zpk488DGpauecGUp0H09UUJE6B+y/BkEspgICqvDpFIIDTUDLNXAtc9F3woCEsNZq2xFYRsItaOu/6FS+Hv8fn+auZklTZ/0HEJjZScr6R5CvcvSjjtZ+4u3wkIfM9sN2kDYqIToxqa0fMBWBYTC6n6c73o4gAiHTszUyeYQDySEAQ2eIIpvSsjbt6RlOE3GM7p2I7buL5cv3F2TFj+HEM4zt0aKwWZnCMKuixylk51udy7J+qcl1/qSp0rYky4eUULdVYUXKuxu4oMgxJ1XUUcpLZvhWdwrWYHnTAjFKt0gA83uuCHMNzPbObH8YnG5V5nBqmwstn4OYW+wK2vRnCpE0t0dld63RfZuroiXnma50gLCZiWkk0JEoYBQ2DeaGITwtpwC2P6rYAYudmN1n4pPS7KQX8kLIdKY6CjnGwpv6txDqEyaV/28gPDbql5tzEaGjoEZHDvyTlLPHAESrTrzxIyfKyHMWW2RK9xRYfWOIVkxhbC39lntGkfGD8mmx6KoNwj5lTDfT4tPU/JtyvxYvRMrCJsT2C8gvN/fAt4g7OiOQvkYuTK6PSKFwCt5XhPwQgnNjFaQisCMsO8BFgYhnhXqLDn9IlcIh5Zr+xM2qUyYEoacEEqnUBKdu9EAABLWSURBVE9OCuqxEQlUzA5cE64KwuuWow9XEIKx1hXCsf4LXQjmRApBcOZRVHMDHithb5DR9dOugFDYfdf2GIRY3mheTC9eBEgV1a6EEIdV2ZyQF8J8X4B9jnrsfnp9rButlfABhKtuc0LkMoNPkwwyWAp1b8UDs3L2ntyRSQPQIjoq7CGEeKJHpfDFRsBwgvMTTBlu0VEEIWf3Hkd4toW+iK8tOmU7JWSBmSg8dZsTmgcQ40b24DwgEM65wqO0KubBnFB2yeMFi6Hod8KaIcTpClbG/TxAimeEWRXhM6qdR3mV0Pz8mJIKlNsMquCKYN4gPHJAaNwgvHSqHYVyGLHrmA72R72lxA9hsxJK54I6+xexklfYXdd2EISVqA0xT3i0Bs/2EIV0DdPN8auS9SFX5B3Kx79UY5A/WtC9Fjc8k8IvCDUuCCMGYScllJZF8UlLeaQVdjGBO19zQfi4YiYnpUU6390K+59BeANKwiuaSC6reCKFuMjmazOaSgl1EHIFIqVToie0j+IIzbUpX//fIVRUUveJIFx2gjDfTsd0pOgZWN30K/hRad70aCiEjUqo0HJw3RNCKOzeBnUI8dtdKBYgeUzUrWLtpoTVhokcvQvmnx+/q5U+ePcIcuqCo0C6rRJWEHbp8jiT+VmBRFKF16t3fj3GPFFCmG/pesLSFEIo7M4mjhd8rfZBfLHatcJ5VMZNhbDqkLByR/XI5hEd6XT8U1Q128opYDmRk8QNod5GCX93q5gxD7PKG0WftSQLAdPy9e0ZjyFUTmQFpbczxVtzhN2Pz0PHq4VCFXU0JW+m0NOHzuXECrza8vuvwIzNM/0yPz/0sEIOT5No6drB5IawlTvarWwNykl0vI0LEEthdE05NBU+dEfprerTRS50UNg3GzpefS39wApYwt57IIV4DVNQO+MWmOF7K5N8/Gf6eeuI0iXmTRXCVkoo+WHEynE6CA9qFmpkLUqDpRCMJrxKCH5uVaqcPR147uZd6KCwBiWs7/irqAF7j/2j3Q/xYt76moKaEnJAiNcHxV++J5IcslToGr+OVrRSwhqE7Yul8d4yYd1BfiNVM8HrVCFVQt07Sz9+gNz+bJWbIigj7JUS4u9ZrrBZ2Mg+h3d4VhD+5oFQOtl1jwzKR4b8622u2yqh3hlCHMf8VZdmNCvEkRn/ZZKCKSGBsPYuGKi8LUfOSryOQhiPEvaU275raeOe+H0rSOv7SKBPuCnh6+kXzA+zO9FrUbo2aDUn9NlSpnH7HQ9RIwH4rA8KpGoG+aMvE3xsTgiys1yzHCEYZGexp5OwRxAGmXbHVPWWpihoUDa8L1RQz+r9y9615LaNbNGwRLGKP1EkRUIfUiIBKwMKiDUUNDIcBLbG3kAmBjJ7XNDbQRbQk97E20ov4KHrK5ISqygZQSapCyTothWpbNTh/Z8DWyAcrlwYL0nagZshtgqHx0jurY7ycNS6X/j0JUFJt1zLFpqi3ZArFNXRYpUR6RoiDUPUYWYRqAi9kxZI0yYBYbcv78QhkFM+GfEs6n7ZFiBEq6fBCTHv6e+0E+gR18hWKQYHKj82MfMBEHpPFfixuXCsdGpm9tm8wRMSSv6/3//55/3/7+//+/snIlaD4LgZjXR7Qtv1paGesANC25rz5d4eemzW0XC6XxIgLJ+G8joyLVp0Aj0xR4I/bCgevcsTtkB49+8EH3J10beE49lNrULIpmvqv5LDN2KHxSJhnhCBaBYGx5GrYaitLxztpjpGkxWuL10h1WHqfvEMwnoYhIQc96IvDzd8BW9wmut3eUIDPxauZsRJfRSDcDe5CYQoOI06SeHrmuCwTlfb45uuj2rrXhpGtta5ca3ZtauNpvYOU/Ny4QkHO+62Ff71/eJ+Y1dIpgNqcBgoe9zrCdEHQbh5KtB/LkFIp2ZqEA6MrtF9QsIrvrE71VHD+7zDj7Y0zfP1SddItV24tnm0u7j9hI2bcdiW064ihDleXzrCBoR1+XUoJ3x8jd5/eNfRXyMn9qs8odgnRHeD0HhJ6qtDih0lsFY/KZxjzmnwrw5kPLAAo8heJzok1daJPYNLT0h25fN+yifqCC+Qdp6YqavpAAjhZp1/e7m8gaPvXGR0YKLrPhCeOWbuBeHm6T39fnXITyM25Towxe0yENY9WhTQeGX0yiA6xDok1dbxelcghEuu+kDkYdrfI7FrcLloeLsnNDe7qKIja7AVqtmjH7fxnTriVDd6wvpjnnC0SH/+IHzEsHtKxmGfPyvpyZ1jKeeY8YR6YbnQiaE2NQgJ2IS6X2c9iYxuX7248YSFmqYaej8WIN++jS7sFLDJtbp6UrlCeG84+jEQwlGG/9HL5SFHR+bG8rWSDpK1MiSjB+ZbwLUtQKJHSLU18VMfCOFZmAJFrayQsVqYV8WWLReILwfCUbJID6IgZDabzfDfQRAwxXlE6QntX5gTfiwctQkRY7qi55vhvwJyxpA0GdgZq2fVG8JxKKe3+GSc+GRCr0y4tj/WExJ2i6tigzmeibGZsBmPoXQ0V6/FICxuA6H7XKYgz/MoAihFCKUp4sYAj5QLib/HE0J3WpGjXByQnZH8rdYqNHwV2xr0DvxXdZPUgLY/xJa9IMSBp3CF+fm7OEjNe1jYbGvBb1ahHsK2N+s8SrbJ9vhlmyRJltC5LvxfyYImewipCUh/iyc0XrK0SBbkVAk9GzllQo9ZYQTiA1SKMXXoMVZx2SQs4Zfjv6uvnr582phN+kF4HuMmWaHZTh/tHhDynDBXgtD2drPo+e3tzTMMr5tvvZGsMkW1mqXGvbM6+qEWhfcVoOQ6IxyNxj73Ykr9Rg5CCfkvXRauGc3jQnOPauO3QgJC/HWOLCSkdImaaNDDwUZyQl6YUYajzkuWByPDMMm7dSqP0Hxb04wLKZeh3I/0Ce/0hKRpSetDsGv4//H5Uz7MZwyFozIQYpBWDIS1jke1DYCwmV0jvUKTfSXsaOFeg1CdE7q7TMpmumRaNGilojt1n1f3j63d6QnNtwzIkj4uYIMqBe2aqcwJ2SQAf7YddDyqTQ1CMrtWs2pERC+dbXUYoTqvrIQnVN0rb5pL+S/st4xRl84V8ajr3wVCNpJ6pyd0j9HKd2U56UpQDkjjUee1VIKQjwfhPz8zLUihjadO87wXhKQUytt3jCuJZoR92VAjqabMCe1xBrI3WxY8sj34WkVTI0B44z4hA+F9ntC21k0OfJ0nMyoOFMiJkQ3WJwRbT5o08lbhfzUItZ1vnQSEROflnBVOIHlh6C8/qUBYqKilsR8Bc9la0XmVIlfUR0U4mn67YTvpTP57FwhJPWov6+BB61DysHsJpakonW7Ln2WBOZ9dQxqE2rog7HVwS58RRiM6NkNYLXrDMNgSF1XQP5DhNmmgh0HItwpV9VF3yl9zi5KaAOF9ntA75orE1vVZ0KwiRrbYnLfUE4oBUh2Oamv8XQDK/po74V1joyw4KxzH26jFut15iwaEB/mFN+KVCmAG4zut0eqr1Mu40/eUe8vhH8yIP7DUa47XuSLWNMcHFg+X0vk87AnVjDlCwLD+megehTYef4UyEFKhNFabKbL5PMolRZPGE6YHeQcN+5hcEa1Cl/tdIFdGdI8fA6Fa7rQTMh+jfC9/PZzwHQmwlf4klkKVidhoweeDyr2ujmoT5ZdUAsJGghdnhe8ViPodYVvrXg5CaG1BpGoCmrw0g+TKiDgcvR2EJucdLdRsa+bjo936SbZ55SvaLE5MO5UISPv1PCesFdVRPihbveo+oTZqZDyt7HdxrWSvRmkKAokj7HhCKMVYCEKF2hpBqejCuepwFOXH5c0gRNizKUBoPnwZO60zrPNMNbNDujEUhDMZA6kx0CeEI9EnzHQ0qo2DcFqmpaw5Z8RhWvO2llwr7SZPiMGeb5WBoXtiZZdiK+vCnXPC6a8CIfSOQWs/8DGeDRzS8ckaBEojmSsUKd9CCUKkKt1o+8OMTqcVMwkIsWfgXYr2CKncE6KDDD/2eA3K6URdFEkGFC3O4ehNnnCc0IZcvlWsRzlxGDXhpz15xinhRF3HohE6doX9hxRUHbU8J2QF1jrS0ai2c3yVk+DKkD74+bzxxYq9pDAj3Qd0ThEY0GyC1jdWeixkpZkGhLfkhGwvGb+bPL6Em325an725WuYhyclwKG3Zyte+AxQAUJ5OPo55Kmvjka1iYCTKPPOpNNk1rxg9dFU+pq2J5QpINnWNAehWhQCkpVf5aqdd+QgnN4AQkEOkIdjQ+4IsxZLvm1t83w7oOFkUA4sqSpx4wklHX8mva1ro9pazsVfYRDKy5YOaRxQ2jV5VNfKCWVC98s4SMF8ADrGjkVqqOr3Mp/cr+xzbgLh2RPK5YNta1+2hnyWGJLlcWAOgE6rk1/I6thXKx4CIfTWTDVxrUlmtHHD+EkJsaErvcprpsIrn+mEDccMyvpfRW9uPkTF9gljolZNzXgChPvJTapMYEDDmzQcqlOjFL6vwGxQV2rpU+k4JBGOO4ejm/5Tnei8DAh1RqitXZdpL89fvcBl5cBcsThAxH05CN+PvUs+RhwgVE2H7rdzYq4wjfp7dd7XgrfKbxBacsSI2Uy2/Wdi0KdN38WIQwCCQR01od+IH0s9vzSivsgeR5t+jhlW11lpDGpr3agcUQ00U5paEYcCVr6rGEgLOT9iXfVWZuhW1A0yvmLck7jCPixMDmwBIc1ukGDz9qyfIf1ce4JTTHAWpKJiVCAYHDSFnJ4clX063ORxQytZvRpT5onuLoPwONFVGW3iHk5XANGC+8SW+sooVaGUMCNFoo+BevsYjh8ADIbjoGQTQxnxFH01So5RRJPGwR/NOnN89rt5c0JOBc5SUAaZlE2zYW1tkQGjqqcD6T2VrA1YbK9iAmhQDIJofdIM3NrOGPTDgg1sBlIUGvGsSFWpEn5BziexaEffvgYPmYVJy/1gEGkdABJrCld6Dfi0Kz44UAzr0ONTsYYH34a8fDPHmmYFOe+SA2S8JdlxJP09NE8lEXwXgb+8lMuhA6v0Z7jQN8Qn8l5JUIFWz5bWotDGLhO+hz4RIiQEYigPfMuxZTsS/ZK9tChjO+P5SjhC/D5JPHFMu/0xy/E+olMmme8pL7jtxEnKp5vzbdyVloa2FyeF+Jhqahmq94KGRfwVjQzJVJ5j2408J4TQnMTbFcZSyjht8CFjWvQkMaY7eEhxjCLzJybsZJnTiu+d1OBbmyQDEjdI5dEyTTiqjd1ow5mM/Tnjs2W+J5z74y5+zo5sHUp2mAyXvEtFiNLEjGmV7f3x0uF3E5pLy19wBtMyOVlLE8out2ftFlUt3ghkT7sHAUNoOsuH06ISWMfg2e8sz+h9akByrHjPGIUJhRuK5rH18LDE5jqO602scTzNaEGXjgFBY4I/uhDnx08jUzoB61q7Q3V+5hTZ0VqKp4GNvzltPY+qwwYjH+I/trEZff4SYAiutqexlgnVRq7L48SK/fWsBCg909uCKFz7sbV8vEpllnHcG0hiHxf70xA/3wlTLhswxe9Thuvn1we6m2A/PuzWUc5xnhbBln/j+nYvvxz/be9edtMGogCA5oUdQmKHFEWEEtNIYxa1ZHdZsaq8afP/P1Q/eAYStZtKlc4REo/x3Lm2GGZMwvgp3fyPXPeHuC/pKlTrfMNrnX++2L3Brx9f0nxVLqvjaG2/L+7nz3vL9j6+zKf1t1WrKIq7OpuPm11vcr54qJvZZxVW2dcvm8V9n8f5p1BdnT5u4Veevjxeb2ffFy/zuuznpFVbOOmm0+uFgh+KsOyEMhtPHp4f0vx1ce6C2XTvl1k7FtxPx3sm6XiaFc1geNQJm842O9lxqmYYvMsOonTSrCjDrOoaKots10TTQt0XHMda1nmWHkQZj7OyWucbutKD8nGW1+Xy+OwqniWDos1qPk/TSVepaXia9Yq8yLJ+Af50nuWrqBkIq1Cnu9DpNC9DcvKjIl7u706fZJaXSZtl3ByNYjo5cH93V3Tq/Onp+4+fl7dOBtmeMd3MkiSKosFgc4taSZKMzq/iPw8z6qK0tQdbzfMQbkfn/Ug4C9G2sC2ZzU6fyzWz0cvQRtqGGQy2F3hvCkMIfbrRJuV2glmNjqMNr5oZ56JdrHewCdcmGJLQi0LUpxRFi0V36eqr0WJvB7okb06PhOddHrtNu7i3N8P13HzxZrngxeX+K3ogh/2nW9t296z/fXn76t8H2tSL+/suRLz7DmSzdu728TuBDjY9e7NtfNJwGL8bq49yULu/H+7yiE9UiOMPjsI6ytmHOZ7tlQ/3lw8GHzxvH/zbZgEAAAAAAAAAAAAAAAAAAAAAAAAAAAAAAAAAAAAAAAAAAAAAAAAAAAAAAAAAAAAAAAAAAAAAAAAAAAAAAAAAAAAAAAAAAAAAAAAAAAAAAAAAAAAAAAAAAAAAAAAAAAAAAAAAgP/Mbxx6UrktYK08AAAAAElFTkSuQmCC;clipPath=inset(1.36% 23% 31.36% 23.67%);" vertex="1" parent="WIyWlLk6GJQsqaUBKTNV-1">
          <mxGeometry x="735" y="235" width="91.89" height="85" as="geometry" />
        </mxCell>
        <mxCell id="RCtKOQKh-bSYk3bHOEbh-25" value="BT Module" style="rounded=1;whiteSpace=wrap;html=1;" vertex="1" parent="WIyWlLk6GJQsqaUBKTNV-1">
          <mxGeometry x="320" y="270" width="50" height="60" as="geometry" />
        </mxCell>
        <mxCell id="RCtKOQKh-bSYk3bHOEbh-27" value="" style="endArrow=classic;startArrow=classic;html=1;rounded=0;entryX=1;entryY=0.5;entryDx=0;entryDy=0;exitX=0;exitY=0.5;exitDx=0;exitDy=0;strokeWidth=2;" edge="1" parent="WIyWlLk6GJQsqaUBKTNV-1" source="RCtKOQKh-bSYk3bHOEbh-25" target="RCtKOQKh-bSYk3bHOEbh-4">
          <mxGeometry width="50" height="50" relative="1" as="geometry">
            <mxPoint x="390" y="310" as="sourcePoint" />
            <mxPoint x="440" y="260" as="targetPoint" />
          </mxGeometry>
        </mxCell>
        <mxCell id="RCtKOQKh-bSYk3bHOEbh-28" value="&lt;font style=&quot;font-size: 16px;&quot;&gt;&lt;b&gt;Electronics&amp;nbsp;&lt;/b&gt;&lt;/font&gt;" style="text;html=1;align=center;verticalAlign=middle;resizable=0;points=[];autosize=1;strokeColor=none;fillColor=none;" vertex="1" parent="WIyWlLk6GJQsqaUBKTNV-1">
          <mxGeometry x="195" y="210" width="110" height="30" as="geometry" />
        </mxCell>
        <mxCell id="RCtKOQKh-bSYk3bHOEbh-29" value="Interface" style="rounded=1;whiteSpace=wrap;html=1;" vertex="1" parent="WIyWlLk6GJQsqaUBKTNV-1">
          <mxGeometry x="632.5" y="160" width="85" height="60" as="geometry" />
        </mxCell>
        <mxCell id="RCtKOQKh-bSYk3bHOEbh-30" value="" style="endArrow=classic;startArrow=classic;html=1;rounded=0;entryX=0.5;entryY=1;entryDx=0;entryDy=0;exitX=0.5;exitY=0;exitDx=0;exitDy=0;strokeWidth=2;" edge="1" parent="WIyWlLk6GJQsqaUBKTNV-1" source="RCtKOQKh-bSYk3bHOEbh-9" target="RCtKOQKh-bSYk3bHOEbh-29">
          <mxGeometry width="50" height="50" relative="1" as="geometry">
            <mxPoint x="390" y="310" as="sourcePoint" />
            <mxPoint x="440" y="260" as="targetPoint" />
          </mxGeometry>
        </mxCell>
        <mxCell id="RCtKOQKh-bSYk3bHOEbh-34" value="&lt;font style=&quot;font-size: 16px;&quot;&gt;&lt;b&gt;System Control GUI&lt;/b&gt;&lt;/font&gt;" style="text;html=1;align=center;verticalAlign=middle;resizable=0;points=[];autosize=1;strokeColor=none;fillColor=none;" vertex="1" parent="WIyWlLk6GJQsqaUBKTNV-1">
          <mxGeometry x="590" y="120" width="170" height="30" as="geometry" />
        </mxCell>
      </root>
    </mxGraphModel>
  </diagram>
</mxfile>
